<?xml version="1.0" standalone="no"?>
<!DOCTYPE svg PUBLIC "-//W3C//DTD SVG 20010904//EN"
 "http://www.w3.org/TR/2001/REC-SVG-20010904/DTD/svg10.dtd">
<svg version="1.0" xmlns="http://www.w3.org/2000/svg"
 width="640.000000pt" height="640.000000pt" viewBox="0 0 640.000000 640.000000"
 preserveAspectRatio="xMidYMid meet">

<g transform="translate(0.000000,640.000000) scale(0.100000,-0.100000)"
fill="#000000" stroke="none">
<path d="M3153 5990 c-27 -11 -52 -50 -132 -207 -35 -68 -66 -123 -69 -123 -4
0 -24 34 -45 75 -43 83 -85 125 -126 125 -37 0 -62 -20 -115 -94 -66 -93 -92
-106 -209 -106 -152 0 -226 -28 -387 -148 -47 -34 -123 -82 -169 -105 l-85
-42 -190 3 c-222 3 -255 -3 -481 -89 l-140 -54 -402 -3 c-394 -3 -403 -4 -403
-23 0 -20 7 -20 402 -17 l403 3 105 38 c58 21 150 54 204 73 l99 35 206 -3
206 -3 85 42 c47 23 131 75 186 116 56 40 130 86 165 102 58 27 75 30 181 31
107 1 121 4 162 28 29 17 66 54 101 101 59 81 80 90 114 53 26 -27 101 -171
101 -192 0 -26 -128 -244 -174 -298 -32 -37 -48 -48 -71 -48 -33 0 -108 -31
-119 -49 -13 -20 -23 -12 -63 52 -90 140 -162 197 -253 197 -60 0 -102 -19
-192 -88 -34 -27 -103 -70 -153 -97 -49 -27 -108 -61 -130 -76 -22 -15 -65
-42 -95 -60 l-55 -34 -145 -1 c-134 -1 -156 -4 -290 -39 l-145 -39 -417 -3
c-406 -4 -418 -5 -418 -24 0 -18 10 -19 388 -19 415 0 404 -1 661 60 123 28
143 31 237 24 121 -8 130 -5 259 76 50 32 122 74 160 95 39 21 114 69 169 108
85 61 105 71 151 75 86 7 156 -46 238 -181 l46 -76 -37 -41 -37 -42 -56 21
c-31 12 -65 31 -75 42 -25 28 -67 49 -98 49 -16 0 -44 -17 -76 -45 -28 -25
-55 -45 -59 -45 -16 0 -112 -92 -172 -166 l-60 -74 -36 15 c-20 8 -66 44 -104
79 -98 93 -118 94 -269 23 -63 -31 -162 -71 -219 -91 -173 -60 -228 -66 -642
-66 -366 0 -369 0 -369 -21 0 -20 1 -20 413 -16 408 3 413 4 502 29 105 31
220 75 307 119 143 72 166 71 268 -20 37 -33 79 -66 94 -72 14 -7 26 -16 26
-20 0 -13 -113 -110 -152 -130 -46 -23 -116 -25 -189 -3 -66 20 -115 15 -281
-28 l-123 -32 -432 -4 c-424 -3 -433 -4 -433 -23 0 -20 6 -20 428 -16 425 4
427 4 537 31 191 47 228 51 295 33 177 -50 269 0 462 250 91 118 123 147 196
180 72 31 120 29 237 -13 55 -20 119 -42 141 -48 l41 -11 -47 -83 c-84 -148
-103 -154 -189 -62 -43 46 -66 62 -97 68 -56 13 -77 0 -226 -141 -211 -200
-276 -236 -481 -272 -72 -13 -172 -35 -222 -49 -125 -37 -258 -46 -697 -46
-371 0 -378 0 -378 -20 0 -20 7 -20 378 -20 447 0 572 9 719 49 59 17 153 38
208 47 190 31 296 87 460 243 218 208 217 208 311 108 66 -69 83 -78 131 -65
34 9 71 54 113 138 31 63 68 100 100 100 20 0 40 -16 83 -64 61 -69 106 -93
159 -82 25 5 28 3 24 -12 -3 -9 -15 -48 -27 -87 -25 -83 -66 -163 -90 -176
-14 -7 -27 0 -60 36 -25 27 -58 50 -80 56 -33 10 -42 9 -73 -10 -19 -12 -60
-58 -91 -102 -98 -140 -162 -162 -339 -114 -122 32 -147 28 -246 -36 -35 -22
-75 -45 -89 -51 -14 -5 -129 -11 -256 -12 -254 -2 -228 3 -455 -87 l-85 -34
-397 -3 c-390 -3 -398 -3 -398 -23 0 -20 6 -20 403 -17 l402 3 115 46 c177 71
232 81 450 78 210 -3 226 0 335 68 90 56 118 60 198 34 79 -27 151 -36 211
-27 55 9 124 67 192 162 49 68 78 94 105 94 10 0 37 -21 61 -46 56 -59 81 -69
118 -47 40 23 72 87 115 228 49 161 81 238 112 266 l25 24 21 -29 c12 -15 43
-50 68 -77 63 -67 91 -67 163 1 29 28 60 50 68 50 33 0 70 -68 121 -218 80
-234 144 -275 232 -147 22 32 47 63 56 68 29 18 65 -17 105 -100 l37 -78 -48
-94 c-70 -138 -146 -204 -196 -172 -10 6 -25 11 -33 11 -19 0 -77 69 -125 149
-44 74 -102 135 -144 150 -16 6 -54 11 -86 11 -64 0 -110 24 -159 81 -62 75
-123 55 -179 -57 -34 -70 -38 -74 -69 -74 -43 0 -92 -43 -134 -116 l-31 -56
-25 33 c-46 64 -81 75 -127 39 -14 -11 -56 -79 -92 -152 -73 -143 -129 -213
-181 -227 -60 -17 -93 0 -168 88 -89 106 -125 115 -233 60 -42 -21 -86 -39
-97 -39 -12 0 -48 12 -81 25 -33 14 -69 25 -81 25 -36 0 -87 -22 -157 -68 -64
-43 -73 -46 -165 -54 -54 -5 -146 -23 -207 -41 l-110 -32 -392 -3 c-385 -3
-393 -3 -393 -23 0 -20 6 -20 403 -17 l402 4 95 30 c58 19 129 34 182 38 112
9 136 17 209 65 95 64 122 68 203 36 81 -33 124 -29 202 15 85 49 104 44 198
-54 61 -63 91 -87 121 -95 101 -27 180 40 277 235 63 127 96 171 123 161 8 -4
28 -27 44 -53 35 -54 30 -87 -13 -92 -40 -5 -92 -63 -117 -132 -19 -53 -25
-60 -48 -60 -44 0 -89 -17 -128 -49 -25 -21 -48 -31 -71 -31 -41 0 -78 -19
-116 -59 l-29 -30 -37 33 c-20 18 -58 41 -85 51 -45 18 -51 18 -114 2 -86 -22
-124 -22 -201 5 -56 19 -69 20 -109 9 -25 -7 -73 -33 -105 -58 -146 -113 -213
-123 -828 -130 -450 -5 -458 -5 -458 -25 0 -20 5 -20 458 -15 618 7 694 19
840 130 31 24 74 50 94 57 34 12 44 12 100 -8 75 -26 137 -28 218 -5 56 15 62
15 97 -1 40 -18 103 -70 103 -84 0 -5 -18 -36 -39 -70 -45 -68 -90 -101 -180
-132 -72 -24 -119 -25 -226 -5 -118 21 -414 46 -460 38 -22 -3 -78 -22 -125
-42 l-85 -36 -397 -3 c-387 -3 -398 -4 -398 -23 0 -18 10 -19 378 -19 402 0
414 1 539 53 34 14 79 28 100 31 42 7 386 -26 472 -45 30 -6 86 -9 123 -7 l69
5 -53 -21 c-29 -12 -82 -43 -117 -69 -97 -72 -121 -73 -212 -10 -43 29 -66 38
-109 41 -50 4 -67 -1 -165 -46 -197 -89 -169 -85 -623 -90 -394 -3 -402 -4
-402 -23 0 -20 5 -20 403 -16 455 4 440 2 629 89 134 61 174 62 253 6 28 -19
64 -40 80 -46 17 -6 23 -11 14 -11 -9 -1 -81 -32 -160 -70 -79 -39 -184 -82
-234 -97 l-90 -28 -447 -4 c-439 -4 -448 -4 -448 -24 0 -19 6 -19 442 -15 546
6 526 2 811 139 136 65 156 72 225 76 43 2 91 11 107 19 17 9 71 57 120 108
62 62 100 94 120 97 42 8 103 -14 229 -85 100 -55 114 -61 170 -61 115 0 186
63 293 262 121 224 210 261 346 144 30 -26 62 -52 72 -57 15 -9 16 -15 6 -32
-6 -12 -29 -94 -51 -181 -75 -303 -106 -330 -165 -142 -76 240 -156 246 -225
18 -66 -220 -74 -242 -96 -267 -21 -25 -23 -25 -42 -8 -11 10 -30 44 -42 75
-28 72 -78 147 -106 163 -34 18 -69 3 -106 -43 -18 -23 -49 -59 -69 -80 -46
-47 -61 -44 -139 35 -90 90 -129 89 -229 -7 -84 -81 -108 -92 -206 -101 -158
-14 -243 -46 -369 -140 -131 -98 -78 -90 -618 -93 -470 -3 -478 -3 -478 -23 0
-20 6 -20 477 -17 546 3 512 -2 639 98 117 92 195 121 364 136 94 8 134 29
221 110 37 35 76 64 86 64 25 0 62 -27 111 -82 24 -25 54 -49 67 -52 44 -11
91 18 141 88 51 70 75 86 101 64 9 -7 38 -58 64 -113 44 -94 46 -101 29 -109
-13 -6 -30 -3 -53 7 -61 29 -132 40 -187 28 -60 -13 -94 -29 -175 -85 l-60
-41 -120 0 c-130 0 -135 -1 -222 -66 -73 -55 -113 -67 -243 -73 -134 -6 -178
-17 -337 -83 l-118 -48 -393 -3 c-381 -3 -392 -3 -392 -22 0 -20 9 -20 378
-20 413 0 416 1 557 63 113 50 190 67 335 76 134 8 147 12 228 73 83 62 108
69 211 61 104 -7 120 -2 229 68 75 49 153 74 200 63 58 -13 92 -26 92 -36 0
-8 -30 -9 -95 -4 -135 9 -161 -8 -269 -177 -64 -99 -115 -152 -165 -168 -43
-14 -129 -16 -241 -5 -78 8 -92 6 -163 -18 -42 -14 -121 -46 -175 -72 -167
-78 -152 -76 -664 -81 -450 -5 -458 -5 -458 -25 0 -20 5 -20 463 -15 518 5
512 4 664 81 49 24 120 54 158 67 72 25 92 26 285 18 57 -2 111 1 136 9 62 18
122 78 208 206 95 142 112 154 205 137 72 -13 118 -3 186 39 46 29 63 25 107
-20 41 -44 46 -63 23 -87 -34 -33 -95 -135 -166 -273 -54 -105 -89 -161 -129
-204 l-56 -59 -31 17 c-45 23 -77 20 -111 -9 l-30 -25 -127 62 c-150 73 -185
77 -307 35 -71 -25 -86 -27 -172 -21 -108 8 -128 2 -221 -60 -114 -77 -103
-75 -622 -76 -456 0 -463 0 -463 -20 0 -20 7 -20 463 -20 528 0 512 -2 640 82
l81 53 125 0 c105 1 135 4 184 23 99 38 155 32 286 -33 61 -30 111 -57 111
-60 0 -4 -13 -26 -29 -49 -43 -62 -97 -106 -130 -106 -34 0 -109 26 -221 76
-120 54 -153 52 -356 -25 -88 -33 -200 -72 -250 -87 l-89 -28 -407 -4 c-400
-3 -408 -4 -408 -23 0 -20 5 -20 413 -17 471 5 416 -4 731 113 224 82 244 83
383 21 172 -78 226 -83 296 -25 21 17 54 56 73 88 80 126 114 139 168 64 66
-90 66 -91 22 -129 -60 -52 -118 -82 -188 -99 -35 -9 -113 -32 -174 -52 l-112
-37 -139 13 c-162 16 -191 12 -388 -54 -73 -25 -167 -49 -215 -54 -46 -6 -261
-11 -477 -11 -386 0 -393 0 -393 -20 0 -20 7 -20 398 -20 219 0 436 5 482 10
49 7 137 29 210 54 182 63 240 72 349 58 134 -18 181 -15 278 17 48 16 117 37
153 46 36 9 74 19 85 22 30 8 -104 -86 -155 -109 -35 -16 -79 -22 -205 -29
-174 -9 -213 -19 -301 -80 -70 -48 -122 -66 -211 -73 -46 -4 -127 -20 -185
-38 l-103 -32 -397 -3 c-389 -4 -398 -5 -398 -24 0 -20 6 -20 403 -17 l402 4
100 33 c67 22 128 35 185 38 91 6 144 24 216 74 83 57 118 66 274 74 102 5
162 12 204 26 69 24 77 28 232 141 67 48 130 88 141 88 30 0 66 -33 104 -92
18 -29 43 -65 57 -80 l24 -26 -20 -29 c-11 -15 -38 -60 -60 -99 -23 -39 -60
-88 -83 -108 -38 -35 -45 -38 -83 -32 -48 8 -118 40 -200 93 -50 32 -68 38
-126 41 -59 4 -76 0 -132 -26 -35 -17 -93 -53 -129 -80 -99 -75 -137 -91 -242
-102 -50 -5 -132 -20 -182 -35 -199 -58 -190 -57 -652 -62 -419 -4 -433 -5
-433 -24 0 -18 12 -19 388 -19 430 0 490 6 702 63 69 19 158 37 199 41 91 8
132 26 242 104 111 80 160 102 230 102 46 0 65 -6 115 -37 32 -20 78 -47 102
-59 l42 -22 -27 -7 c-35 -8 -71 -38 -108 -90 -120 -167 -180 -180 -384 -84
-124 59 -196 48 -391 -60 -197 -108 -214 -111 -726 -111 -377 0 -384 0 -384
-20 0 -20 7 -20 388 -20 508 0 557 8 722 106 179 106 267 122 370 70 129 -67
229 -83 298 -47 42 22 92 72 146 149 68 94 87 94 182 -3 44 -46 91 -84 119
-96 25 -11 45 -24 45 -29 0 -5 -19 -25 -42 -44 -48 -42 -67 -44 -179 -20 -74
16 -81 16 -200 -5 -68 -13 -189 -29 -268 -36 -164 -16 -188 -23 -290 -78 -71
-39 -79 -41 -195 -48 -101 -6 -136 -12 -211 -40 l-90 -33 -397 -4 c-390 -3
-398 -3 -398 -23 0 -20 6 -20 403 -17 l402 3 85 34 c74 29 102 35 210 41 l125
7 100 51 c97 50 104 52 220 62 66 6 195 23 287 37 163 26 169 26 221 10 151
-48 187 -21 393 289 51 77 103 149 114 159 35 32 68 11 132 -85 63 -92 136
-167 174 -176 17 -4 23 -12 20 -23 -3 -9 -13 -49 -22 -89 -9 -40 -22 -76 -29
-78 -7 -3 -27 2 -44 10 -16 9 -39 16 -49 16 -10 0 -27 9 -38 21 -29 33 -69 49
-118 49 -39 0 -53 -6 -101 -46 -46 -37 -59 -43 -71 -33 -27 23 -83 3 -138 -49
-64 -61 -104 -75 -171 -63 -88 17 -127 0 -230 -100 -90 -87 -187 -149 -232
-149 -32 0 -78 20 -142 64 -89 60 -140 50 -258 -53 -23 -21 -59 -43 -80 -50
-28 -9 -187 -14 -600 -18 -555 -6 -563 -6 -563 -26 0 -20 4 -20 573 -15 654 6
600 -1 731 103 81 64 112 70 172 28 21 -15 60 -39 87 -53 46 -26 47 -27 24
-37 -13 -6 -59 -21 -103 -33 -43 -12 -122 -35 -174 -51 -61 -19 -136 -32 -210
-39 -84 -7 -141 -18 -210 -42 l-95 -32 -397 -4 c-389 -3 -398 -4 -398 -23 0
-20 7 -20 398 -17 l397 3 95 33 c71 25 123 35 210 42 69 5 151 20 205 35 50
15 135 40 190 56 66 19 125 44 175 75 116 73 145 86 240 105 74 15 121 35 292
123 132 69 229 127 278 166 63 50 81 60 114 60 23 0 47 -7 58 -16 17 -16 17
-18 -12 -39 -49 -36 -89 -94 -142 -205 -27 -58 -60 -119 -74 -136 l-23 -32
-40 20 c-36 18 -43 18 -73 5 -18 -8 -47 -20 -64 -26 -48 -19 -88 -67 -146
-175 -81 -151 -111 -164 -204 -86 -76 64 -161 100 -231 100 -64 0 -49 8 -241
-123 -83 -56 -136 -69 -292 -72 -125 -3 -141 -6 -220 -37 l-85 -33 -403 -3
c-393 -3 -402 -4 -402 -23 0 -20 7 -20 398 -17 l397 3 96 32 c81 28 111 33
190 33 173 0 289 34 385 111 85 69 125 89 178 89 64 0 121 -26 212 -96 80 -60
109 -66 163 -33 l34 20 -21 -33 c-11 -18 -32 -42 -46 -52 -26 -20 -26 -20 -93
2 -87 28 -126 19 -197 -47 -45 -42 -57 -48 -101 -50 -27 -2 -71 -11 -96 -21
-26 -9 -59 -15 -72 -13 -14 3 -58 0 -98 -7 -41 -6 -139 -17 -219 -25 -107 -9
-166 -20 -225 -41 l-80 -27 -402 -4 c-394 -4 -403 -5 -403 -24 0 -20 7 -20
403 -17 l402 4 100 31 c75 23 134 34 240 42 77 6 163 14 190 17 32 4 46 3 40
-3 -51 -50 -165 -138 -189 -148 -17 -7 -72 -18 -121 -24 -55 -7 -124 -24 -175
-43 l-85 -33 -402 -3 c-391 -3 -403 -4 -403 -23 0 -18 11 -19 379 -19 l379 0
139 39 c76 22 167 43 203 46 84 9 131 32 217 105 81 68 164 122 212 138 51 18
147 14 220 -8 36 -10 100 -26 141 -35 47 -10 133 -44 230 -90 183 -87 361
-155 403 -155 68 0 130 108 208 359 46 151 70 208 115 277 37 56 67 74 120 74
98 0 183 -105 299 -370 63 -145 95 -199 140 -239 67 -59 146 -33 284 93 95 88
115 89 207 6 68 -61 124 -87 166 -77 12 4 77 38 143 77 66 39 137 75 157 80
49 14 74 3 224 -98 150 -101 184 -116 368 -158 81 -18 164 -39 185 -46 25 -8
166 -13 449 -15 407 -4 412 -4 412 16 0 19 -7 20 -402 23 -397 3 -405 4 -508
30 -58 14 -144 35 -193 47 -107 24 -177 59 -331 163 -110 75 -123 81 -171 82
-47 0 -65 -7 -177 -71 -68 -40 -136 -77 -150 -82 -41 -15 -89 4 -138 55 -56
57 -88 74 -138 74 -43 0 -62 -12 -155 -97 -105 -95 -172 -115 -220 -65 -14 15
-49 77 -77 137 -108 232 -141 295 -183 351 l-44 57 27 106 c31 122 75 228 101
242 22 11 62 -39 187 -240 90 -146 121 -184 166 -208 28 -14 41 -14 139 3 34
6 41 3 69 -27 17 -19 54 -76 82 -128 88 -160 148 -170 232 -40 53 82 89 112
122 104 13 -3 55 -30 94 -60 40 -30 98 -63 132 -75 80 -28 167 -70 238 -116
69 -44 119 -51 232 -35 78 12 85 11 171 -15 l90 -27 403 -4 c398 -4 402 -4
402 16 0 20 -7 20 -392 23 l-393 3 -106 30 c-100 28 -111 29 -166 17 -122 -25
-154 -17 -295 70 -31 19 -92 47 -134 62 -84 30 -126 54 -191 109 -87 73 -147
56 -228 -63 -27 -40 -57 -78 -66 -84 -29 -17 -64 18 -120 119 -30 53 -71 112
-92 132 -42 37 -45 37 -158 17 -33 -5 -41 -2 -77 30 -22 20 -63 75 -91 122
l-51 86 28 26 c16 15 40 48 55 73 54 92 95 82 153 -34 114 -228 218 -336 324
-337 19 0 64 14 100 31 90 44 134 43 235 -3 44 -20 118 -46 165 -58 47 -12
135 -36 195 -55 61 -18 156 -43 211 -55 56 -12 142 -33 190 -48 89 -26 91 -26
497 -30 402 -3 407 -3 407 17 0 19 -8 20 -402 23 l-403 3 -93 28 c-52 15 -137
37 -190 48 -54 10 -146 35 -207 53 -60 19 -148 44 -195 56 -47 12 -114 34
-150 50 -36 16 -77 31 -92 35 l-27 7 32 31 c18 18 46 49 62 69 44 53 68 57
108 16 17 -19 48 -56 67 -83 19 -27 54 -64 78 -82 51 -39 88 -42 222 -18 132
23 193 20 296 -17 l89 -32 403 -4 c396 -3 402 -3 402 17 0 20 -8 20 -397 23
l-398 4 -99 32 c-113 37 -161 39 -304 16 -161 -26 -190 -14 -287 122 -47 66
-95 97 -136 88 -13 -3 -53 -37 -89 -76 -84 -89 -99 -88 -169 16 -27 39 -61 84
-75 100 -38 40 -27 42 24 4 110 -84 142 -88 247 -32 80 42 109 41 178 -6 90
-62 145 -70 300 -45 137 23 214 20 288 -11 127 -53 136 -54 540 -54 370 0 377
0 377 20 0 20 -7 20 -372 20 -399 0 -405 1 -537 54 -78 31 -169 34 -306 10
-126 -22 -169 -16 -257 37 -63 37 -81 43 -128 43 -45 0 -65 -7 -107 -34 -67
-42 -112 -38 -175 13 -67 54 -102 61 -179 37 -104 -32 -125 -29 -183 33 -28
28 -73 90 -100 137 -39 68 -77 113 -191 225 -78 77 -176 182 -219 232 l-77 92
43 47 43 46 90 -5 c49 -3 108 -11 130 -17 78 -24 135 -108 209 -313 45 -126
96 -216 148 -262 38 -35 44 -37 94 -33 65 6 101 31 181 130 33 40 68 74 79 76
30 4 66 -29 127 -117 112 -159 222 -203 373 -150 86 30 140 22 238 -34 133
-77 150 -79 644 -84 426 -4 432 -4 432 15 0 20 -9 20 -442 25 -499 5 -483 2
-623 84 -99 58 -168 67 -255 34 -142 -54 -237 -11 -352 157 -53 79 -96 112
-142 112 -23 0 -39 -11 -70 -47 -23 -26 -67 -73 -98 -105 -51 -52 -61 -58 -98
-58 -32 0 -48 6 -69 27 -40 41 -79 112 -117 215 l-34 91 42 74 c71 124 106
142 220 111 165 -44 221 -91 318 -263 57 -101 111 -160 157 -171 15 -4 57 1
100 11 72 18 73 18 155 -4 46 -13 133 -27 194 -31 84 -6 135 -16 210 -41 l99
-34 403 -3 c396 -3 402 -3 402 17 0 19 -9 20 -397 23 l-398 4 -105 32 c-68 21
-137 34 -195 38 -49 3 -130 17 -180 30 -105 28 -132 29 -199 9 -27 -8 -57 -15
-68 -15 -32 0 -97 71 -145 157 -25 47 -61 105 -79 129 -19 24 -34 46 -34 49 0
14 59 2 123 -24 40 -16 110 -40 157 -52 101 -26 127 -38 200 -94 98 -75 109
-78 285 -88 88 -4 357 -10 598 -13 431 -5 437 -5 437 14 0 20 -10 20 -452 26
-534 7 -723 16 -758 35 -14 7 -54 35 -90 61 -75 55 -114 73 -220 100 -43 11
-109 33 -148 50 -55 23 -84 30 -134 29 -50 -1 -88 7 -188 42 -124 43 -125 43
-166 98 -32 45 -78 81 -122 97 -4 1 25 79 44 119 19 41 47 46 68 13 8 -13 27
-57 42 -98 49 -137 97 -210 140 -210 24 0 74 52 105 110 17 32 40 67 50 76 19
17 21 17 45 -2 14 -10 51 -68 82 -129 82 -158 127 -183 210 -117 90 71 120 77
192 36 70 -41 117 -54 220 -64 65 -6 116 -17 160 -36 127 -53 138 -54 543 -54
370 0 377 0 377 20 0 20 -7 20 -371 20 -398 0 -416 2 -546 55 -38 15 -99 29
-155 35 -114 12 -143 20 -212 59 -85 49 -164 36 -230 -38 -28 -31 -69 -27
-100 10 -29 34 -60 89 -54 95 2 2 57 17 122 34 134 34 145 34 281 -15 174 -62
325 -75 871 -75 387 0 394 0 394 20 0 20 -7 20 -388 20 -550 0 -719 15 -887
81 -104 41 -177 42 -300 6 -49 -15 -94 -27 -101 -27 -6 0 -25 23 -42 50 -35
56 -73 77 -109 61 -19 -9 -25 -7 -36 12 -90 148 -114 181 -148 210 -22 19 -54
37 -70 41 l-31 6 42 50 c62 74 99 77 169 16 70 -63 127 -94 231 -126 58 -18
173 -60 255 -94 l150 -61 150 -1 c137 -1 157 -4 230 -30 l80 -28 403 -3 c396
-4 402 -4 402 16 0 19 -9 20 -397 23 l-398 4 -85 29 c-78 27 -97 29 -230 29
l-145 1 -175 71 c-96 40 -191 75 -210 79 -19 4 -45 11 -58 16 -22 9 -22 9 15
42 21 19 55 40 75 47 40 15 37 15 173 -33 44 -16 113 -30 185 -37 63 -6 187
-27 275 -48 l160 -36 408 -4 c401 -3 407 -3 407 17 0 19 -9 20 -407 24 -335 3
-420 7 -473 21 -141 35 -257 56 -368 67 -90 8 -138 18 -208 45 -51 19 -102 34
-115 34 -36 -1 -102 -34 -147 -75 -28 -25 -47 -35 -60 -31 -10 3 -47 31 -83
61 -95 81 -146 85 -216 17 l-40 -39 -89 43 c-98 48 -167 57 -220 29 -21 -11
-44 -14 -84 -9 -72 8 -112 26 -179 77 -60 46 -81 85 -125 226 -23 78 -24 85
-9 108 27 41 62 53 140 46 l71 -6 44 41 c24 23 60 64 79 92 67 99 105 77 172
-102 53 -140 124 -253 180 -289 45 -28 159 -22 237 13 80 36 119 41 195 23 46
-10 107 -14 198 -12 l132 2 77 -48 c98 -61 117 -69 289 -116 219 -60 229 -61
636 -61 366 0 373 0 373 20 0 20 -7 20 -367 20 -203 0 -396 5 -431 10 -34 6
-131 30 -216 54 -116 34 -172 56 -237 94 -119 70 -141 75 -267 67 -83 -5 -123
-3 -177 10 -83 20 -132 14 -213 -23 -44 -20 -73 -26 -129 -26 -69 -1 -73 0
-108 34 -20 19 -54 71 -76 114 -33 66 -37 81 -25 88 31 17 350 127 375 129 60
5 72 -2 158 -92 133 -138 127 -135 383 -175 62 -9 142 -30 195 -51 175 -67
156 -65 668 -70 l467 -5 0 21 c0 21 -1 21 -397 21 -501 1 -557 5 -693 58 -131
51 -157 57 -304 76 -152 20 -186 37 -282 143 -83 91 -119 115 -175 117 l-38 1
22 39 c24 42 61 76 85 76 8 0 47 -34 86 -75 94 -99 117 -108 260 -100 133 9
173 -1 349 -82 188 -88 227 -93 695 -93 382 0 392 0 392 19 0 19 -11 20 -417
23 -472 4 -492 7 -653 88 -146 73 -188 84 -350 84 -96 1 -152 5 -167 13 -12 7
-49 44 -83 83 -104 117 -152 109 -245 -42 -29 -46 -43 -59 -79 -71 -24 -8 -48
-12 -53 -8 -5 3 -35 43 -66 89 l-57 83 53 -6 c69 -8 123 12 212 79 89 68 105
76 152 76 47 0 241 -84 393 -169 126 -71 174 -84 278 -75 69 5 87 2 177 -27
l100 -32 403 -4 c397 -4 402 -4 402 16 0 20 -8 20 -397 23 l-398 3 -85 30
c-75 26 -99 29 -210 30 -82 1 -134 6 -150 14 -14 8 -64 36 -111 63 -142 81
-327 159 -390 165 -64 6 -97 -7 -171 -68 -26 -22 -70 -51 -98 -65 -43 -22 -60
-25 -98 -19 -76 11 -105 31 -219 148 -139 144 -208 234 -192 253 6 8 24 40 39
71 36 76 76 123 105 123 17 0 40 -21 88 -83 74 -95 119 -129 199 -152 60 -17
90 -15 186 12 82 23 101 14 231 -109 182 -171 253 -208 360 -188 85 16 158 12
271 -16 213 -52 240 -54 653 -54 376 0 387 1 387 19 0 19 -12 20 -422 24
l-423 3 -145 37 c-150 38 -230 45 -320 27 -100 -19 -165 16 -331 177 -103 100
-153 133 -201 133 -19 0 -20 2 -8 10 37 24 76 11 144 -49 97 -86 121 -95 230
-88 50 4 118 14 151 23 82 22 132 14 245 -39 52 -25 118 -51 145 -57 34 -9
188 -14 493 -17 436 -4 442 -4 442 15 0 20 -9 20 -447 24 -500 5 -484 3 -636
80 -102 51 -147 56 -274 29 -111 -23 -187 -27 -228 -11 -14 5 -49 32 -78 59
-114 107 -155 107 -296 4 -37 -27 -110 -21 -173 14 -41 23 -70 53 -131 134
-43 57 -95 121 -115 142 l-36 37 33 0 c26 0 44 11 89 54 69 65 90 76 139 76
65 0 143 -67 233 -201 92 -136 129 -161 276 -184 55 -8 124 -21 154 -28 62
-15 108 -10 228 22 l82 22 83 -21 c250 -66 218 -63 675 -67 421 -4 422 -4 422
16 0 21 -3 21 -391 21 -421 0 -491 7 -659 62 -83 28 -174 27 -254 -1 -69 -24
-146 -27 -231 -7 -33 8 -94 19 -135 25 -51 8 -84 20 -107 37 -31 24 -113 123
-113 137 0 4 16 7 35 7 50 0 104 31 167 94 37 37 66 57 95 65 49 13 59 9 214
-84 175 -107 272 -146 402 -164 47 -7 259 -11 528 -11 437 0 449 1 449 19 0
19 -15 20 -497 24 -592 5 -582 4 -793 126 -52 30 -129 74 -170 98 -110 63
-145 58 -244 -36 -105 -100 -167 -116 -231 -60 -36 32 -105 144 -105 170 0 8
21 22 46 33 25 10 69 37 97 61 83 67 115 65 187 -10 72 -75 137 -85 221 -34
28 18 69 34 92 36 38 4 53 -2 152 -63 127 -77 229 -126 300 -144 35 -9 185
-14 498 -17 441 -4 447 -4 447 15 0 20 -9 20 -447 24 -495 5 -499 5 -632 72
-38 20 -113 62 -166 95 l-97 60 44 13 c25 7 91 13 158 12 106 0 122 -3 200
-33 157 -61 153 -61 563 -61 367 0 377 1 377 19 0 19 -11 20 -397 23 l-398 3
-95 37 c-52 21 -119 42 -149 49 -80 17 -199 6 -350 -31 -171 -42 -183 -39
-283 72 -39 44 -85 86 -101 95 -38 19 -85 12 -134 -21 -21 -14 -48 -26 -60
-26 -32 0 -73 46 -134 151 -59 100 -122 176 -183 221 l-39 28 33 0 c45 0 110
-69 168 -178 48 -90 71 -112 118 -112 40 0 80 44 125 133 72 143 105 158 179
81 75 -77 109 -94 189 -94 38 0 82 -5 98 -11 15 -6 63 -46 106 -91 93 -94 137
-117 227 -118 36 0 119 -7 185 -15 85 -10 233 -14 508 -15 380 0 387 0 387 20
0 20 -7 20 -387 20 -275 1 -423 5 -508 15 -66 8 -148 15 -183 15 -81 0 -123
21 -197 102 l-59 63 30 6 c61 13 174 8 280 -13 100 -19 148 -22 567 -25 l457
-5 0 21 c0 21 -1 21 -395 21 -395 0 -505 6 -678 38 -72 14 -112 15 -182 9
-117 -11 -135 -2 -204 98 -29 42 -51 78 -50 80 2 2 96 6 209 10 l205 7 140
-38 140 -38 408 -3 c401 -4 407 -4 407 16 0 19 -9 20 -407 24 l-408 3 -115 35
-115 34 -235 0 c-179 0 -241 3 -260 14 -33 18 -79 70 -139 156 -60 87 -70 95
-120 102 -51 7 -70 -8 -159 -123 -102 -132 -91 -132 -143 0 l-44 113 35 25
c19 14 69 56 110 93 131 118 157 137 198 142 35 5 48 0 113 -44 41 -28 131
-82 200 -121 70 -39 151 -86 180 -105 136 -86 275 -138 424 -156 51 -6 260
-11 488 -11 384 0 397 1 397 19 0 19 -15 19 -457 23 -428 4 -463 6 -535 26
-96 26 -197 72 -313 144 -49 30 -130 76 -180 103 -49 26 -124 72 -167 101
-135 96 -164 91 -330 -54 -68 -59 -137 -117 -154 -129 l-31 -22 -29 30 c-35
36 -60 44 -99 29 -27 -10 -31 -8 -60 26 -37 43 -74 48 -110 14 l-24 -23 -118
113 c-106 103 -188 160 -230 160 -6 0 -17 17 -24 38 -25 77 -67 158 -98 190
-34 33 -50 37 -88 22z m65 -53 c12 -13 37 -61 56 -108 l34 -84 -40 -15 c-57
-21 -124 -84 -232 -219 -124 -154 -147 -176 -179 -165 l-25 9 60 105 c33 58
101 184 151 280 117 228 131 243 175 197z m191 -257 c22 -11 100 -76 175 -144
74 -69 149 -132 165 -141 39 -20 85 -18 141 4 41 17 47 18 72 3 33 -20 68 -83
109 -198 76 -215 136 -270 208 -189 17 20 40 53 51 75 29 56 92 120 120 120
53 0 149 -93 224 -218 21 -34 49 -76 63 -92 l25 -30 -60 0 c-81 0 -104 11
-168 76 -73 74 -103 84 -153 51 -29 -20 -50 -49 -90 -126 -58 -113 -83 -138
-116 -117 -11 7 -43 53 -71 102 -31 53 -73 108 -105 137 -51 47 -54 49 -103
44 -145 -15 -206 -32 -273 -77 l-44 -30 -9 23 c-5 12 -28 85 -51 162 -44 152
-51 169 -82 203 -48 53 -96 15 -141 -112 -5 -15 -11 -9 -32 32 -61 123 -116
114 -184 -32 l-37 -80 -41 60 c-23 32 -50 70 -61 84 -27 33 -26 38 15 85 20
22 78 92 129 157 93 115 138 158 185 177 40 16 98 12 139 -9z m406 -230 c23
-25 15 -34 -24 -25 -33 7 -46 19 -36 35 10 16 41 11 60 -10z m636 -157 l33
-38 -36 -6 c-20 -3 -48 -13 -62 -23 -24 -15 -40 -37 -120 -163 -31 -50 -48
-53 -81 -17 -33 35 -32 44 11 85 20 18 65 71 100 117 78 99 101 105 155 45z
m-1567 -19 c20 -21 57 -68 83 -106 l47 -68 -27 -28 c-14 -15 -39 -57 -55 -93
-23 -50 -37 -69 -59 -78 -47 -19 -79 -4 -141 66 -31 36 -67 69 -80 74 l-23 9
29 42 c15 24 43 70 61 103 42 76 78 115 107 115 13 0 38 -16 58 -36z m546 -15
c12 -22 34 -88 49 -147 16 -59 38 -130 48 -158 19 -49 19 -52 2 -75 -21 -28
-18 -31 -56 51 -39 84 -73 120 -113 120 -45 0 -56 36 -35 115 22 78 52 135 70
135 8 0 24 -18 35 -41z m-218 -9 c19 -27 62 -145 73 -202 6 -29 2 -39 -23 -66
-50 -53 -73 -43 -160 66 l-33 41 45 96 c49 104 62 113 98 65z m-532 -38 c0
-13 -74 -125 -92 -140 -22 -18 -80 -25 -98 -13 -29 19 126 159 178 161 6 0 12
-4 12 -8z m-457 -69 c-7 -2 -19 -2 -25 0 -7 3 -2 5 12 5 14 0 19 -2 13 -5z
m1646 -194 c72 -36 123 -94 202 -230 88 -151 150 -188 229 -135 22 15 54 29
71 33 29 5 37 -1 118 -85 84 -89 133 -122 183 -122 21 0 21 0 2 -15 -10 -8
-36 -15 -57 -15 -32 0 -46 8 -91 50 -69 66 -115 85 -164 69 -21 -6 -57 -28
-81 -48 -69 -56 -94 -71 -121 -71 -21 0 -30 11 -59 75 -41 92 -80 129 -128
122 -33 -6 -34 -4 -68 62 -34 68 -83 121 -111 121 -32 0 -73 -31 -103 -79 -47
-73 -57 -79 -85 -52 -24 22 -69 112 -81 162 -6 23 2 34 60 87 67 61 143 100
196 101 14 1 54 -13 88 -30z m-763 -320 c69 -63 107 -79 181 -79 83 0 112 -21
190 -143 36 -56 75 -112 86 -124 11 -13 16 -23 10 -23 -6 0 -49 42 -96 93
-201 219 -265 230 -359 60 l-41 -76 -23 44 c-12 24 -40 65 -63 91 -23 25 -41
51 -41 57 0 31 76 151 95 151 3 0 30 -23 61 -51z m912 -107 c15 -15 122 -250
122 -267 0 -2 -12 3 -27 11 -33 17 -106 18 -136 3 -12 -7 -48 -36 -79 -65 -70
-67 -104 -71 -150 -22 -28 31 -29 33 -12 43 44 24 122 115 158 185 69 134 87
149 124 112z m-1088 -44 c33 -23 106 -133 117 -177 8 -30 -30 -102 -74 -141
-27 -24 -37 -27 -80 -23 -26 3 -59 11 -73 18 -40 21 -110 85 -110 101 0 27 78
180 109 212 35 38 65 41 111 10z m513 -146 c113 -110 183 -170 229 -196 37
-20 86 -54 110 -76 l43 -38 -26 -10 c-36 -14 -77 -66 -110 -138 -15 -34 -32
-64 -37 -68 -12 -7 -92 122 -151 244 -43 89 -78 130 -112 130 -22 0 -73 -74
-91 -132 -7 -26 -22 -44 -44 -57 -20 -12 -43 -40 -60 -73 -33 -66 -28 -62 -53
-49 -11 6 -34 40 -50 75 -17 35 -48 85 -70 112 l-39 48 35 42 c19 24 60 96 92
161 70 143 101 183 142 183 23 0 58 -28 192 -158z m208 -104 c8 -7 23 -24 34
-37 l20 -25 -45 26 c-45 26 -63 48 -38 48 8 0 21 -6 29 -12z m-927 -45 c30
-27 54 -51 53 -54 -4 -13 -143 -113 -182 -130 -43 -20 -75 -24 -75 -11 0 16
38 118 60 162 48 96 67 100 144 33z m696 -58 c10 -12 9 -15 -8 -15 -11 0 -29
-3 -39 -7 -17 -6 -17 -5 1 15 23 26 29 27 46 7z m-459 -62 c22 -20 49 -54 60
-74 l19 -38 -28 15 c-116 61 -211 0 -332 -215 -80 -140 -135 -204 -196 -227
-61 -23 -107 -11 -234 61 -91 51 -173 85 -206 85 -12 0 -9 7 9 33 14 17 50 73
81 124 37 60 69 99 92 114 34 20 42 21 132 13 214 -19 242 -13 356 74 66 51
113 71 168 72 30 0 47 -8 79 -37z m481 -10 c9 -10 42 -64 73 -119 67 -117 152
-238 246 -352 66 -78 66 -80 44 -90 -35 -16 -72 -71 -113 -168 -21 -49 -42
-89 -47 -89 -5 0 -27 27 -50 60 -36 54 -46 82 -88 251 -54 222 -96 338 -144
400 l-34 45 21 34 c30 48 65 59 92 28z m-952 -17 c0 -3 -4 -15 -9 -28 -8 -21
-14 -23 -55 -20 -25 2 -46 7 -46 11 0 11 62 40 88 40 12 1 22 -1 22 -3z m820
-86 c49 -26 114 -208 174 -483 4 -15 1 -15 -24 3 -36 26 -90 26 -124 -1 -14
-11 -46 -47 -72 -80 -25 -33 -53 -59 -63 -59 -19 0 -71 -43 -71 -58 0 -22 -43
-52 -74 -52 -42 0 -76 27 -126 100 -84 124 -146 133 -212 32 -17 -26 -28 -39
-25 -29 4 9 18 61 33 115 26 95 55 165 73 176 18 12 50 -46 82 -147 61 -192
138 -214 195 -55 8 24 35 120 60 213 55 207 111 335 146 335 5 0 18 -4 28 -10z
m-1435 -402 c-61 -75 -138 -117 -189 -106 -20 4 63 68 143 110 69 36 79 35 46
-4z m2047 -140 c49 -54 193 -256 186 -263 -5 -5 -168 -65 -176 -65 -4 0 -20
28 -35 63 -54 124 -117 159 -179 100 l-29 -27 31 74 c33 81 51 112 83 148 33
36 64 28 119 -30z m-482 29 c9 -7 49 -59 91 -117 41 -58 86 -120 99 -139 l25
-33 -40 -35 -40 -35 -74 7 c-71 7 -75 6 -116 -24 l-42 -30 -22 81 c-12 44 -33
106 -47 136 l-24 55 41 55 c23 30 50 63 60 73 21 21 66 24 89 6z m-545 -136
c62 -89 105 -121 160 -121 25 0 36 -4 33 -12 -3 -7 -15 -42 -27 -78 -26 -78
-59 -139 -85 -154 -15 -9 -22 -6 -40 18 -111 151 -126 161 -234 144 -32 -4
-63 44 -44 70 6 9 27 47 46 83 46 87 82 129 111 129 18 0 37 -19 80 -79z m311
-19 c21 -14 44 -71 84 -209 21 -76 46 -158 55 -182 22 -65 19 -69 -19 -20 -42
56 -73 73 -107 60 -33 -12 -81 -87 -111 -173 -19 -55 -27 -68 -44 -68 -30 0
-90 26 -141 61 -61 42 -101 39 -146 -10 -19 -22 -40 -48 -46 -59 -9 -18 -18
-19 -71 -15 l-60 6 -58 -59 c-31 -32 -85 -99 -120 -148 l-63 -89 -25 36 c-13
20 -24 40 -24 45 0 4 16 24 36 43 50 48 110 143 190 299 55 109 82 148 135
204 92 94 100 91 238 -74 74 -89 131 -34 207 198 32 98 61 162 74 162 3 0 10
-4 16 -8z m127 -484 c85 -107 172 -190 231 -220 25 -13 81 -26 146 -34 91 -11
119 -20 210 -63 58 -27 131 -54 162 -61 50 -10 63 -18 107 -65 27 -30 67 -88
89 -129 l40 -75 -34 -64 c-46 -87 -58 -96 -88 -67 -25 22 -42 59 -90 185 -63
169 -145 168 -206 -2 -20 -55 -26 -64 -59 -74 -19 -7 -62 -37 -93 -67 -33 -31
-63 -52 -71 -49 -18 7 -81 128 -151 292 -94 217 -160 253 -253 137 -72 -90
-163 -123 -236 -86 -55 28 -58 33 -30 60 33 33 83 145 123 274 46 149 74 200
111 200 11 0 48 -37 92 -92z m-412 -93 c46 -31 104 -55 137 -55 18 0 15 -12
-18 -99 -17 -43 -41 -88 -55 -101 l-25 -23 -103 107 -103 107 24 37 c49 74 70
78 143 27z m-211 -91 c14 -10 44 -35 67 -57 l42 -40 -25 -19 c-35 -28 -68 -90
-108 -205 -55 -159 -87 -212 -121 -199 -8 3 -27 26 -43 52 -57 98 -90 133
-137 147 l-44 12 53 60 c29 33 78 97 110 142 31 45 69 91 84 102 33 25 89 27
122 5z m1266 -84 c47 -23 82 -45 78 -51 -8 -13 -33 -5 -138 47 -76 38 -84 44
-57 44 18 0 70 -18 117 -40z m-1093 -87 c94 -111 142 -143 215 -143 70 0 116
25 195 105 51 52 68 63 86 58 31 -8 63 -59 120 -194 26 -63 62 -142 80 -176
17 -34 31 -64 31 -65 0 -2 -20 -2 -45 0 -38 3 -48 9 -65 37 -28 45 -86 95
-111 95 -32 0 -76 -27 -105 -66 -16 -20 -48 -51 -72 -70 -38 -29 -53 -34 -98
-34 -29 0 -64 -4 -77 -9 -33 -13 -96 -69 -118 -105 -17 -28 -17 -28 -29 -7
-15 29 -68 61 -100 61 -14 0 -35 -7 -46 -15 -20 -13 -22 -11 -45 38 -13 28
-37 66 -53 85 l-29 33 20 22 c29 31 40 55 84 179 44 124 62 161 90 189 27 27
36 24 72 -18z m563 -368 c15 -20 25 -38 22 -40 -2 -3 -16 13 -31 35 -32 49
-27 52 9 5z m490 9 c19 -9 51 -36 71 -60 l36 -44 -47 -41 c-25 -22 -60 -65
-78 -95 -18 -30 -36 -54 -40 -54 -3 0 -11 15 -17 33 -6 17 -36 65 -66 106
l-56 73 41 39 c34 33 76 54 113 58 5 1 24 -6 43 -15z m-537 -30 c12 -15 21
-29 21 -33 -1 -3 -19 -26 -40 -50 l-40 -44 -26 26 c-28 28 -26 36 18 100 24
34 41 34 67 1z m-781 -42 c10 -10 31 -48 46 -84 l28 -67 -92 -140 c-66 -100
-98 -141 -112 -141 -36 0 -93 39 -161 109 l-68 71 39 -6 c70 -11 143 50 204
171 33 66 65 105 85 105 7 0 21 -8 31 -18z m605 -54 c-17 -18 -54 -80 -82
-138 -28 -58 -60 -116 -71 -130 l-19 -25 -45 44 c-24 24 -52 58 -62 76 l-17
33 36 50 c44 60 87 82 159 82 35 0 63 7 83 19 45 29 52 25 18 -11z m111 -85
c35 -38 104 -115 154 -173 50 -58 134 -145 186 -193 53 -49 101 -97 106 -107
9 -17 6 -18 -44 -13 -31 3 -97 -2 -157 -12 l-102 -17 -29 31 c-26 28 -49 37
-86 32 -8 -1 -35 18 -62 43 -60 56 -108 68 -161 39 l-36 -20 19 86 c47 217
105 371 139 371 5 0 38 -30 73 -67z m-66 -437 l47 -45 -25 -47 c-33 -61 -73
-104 -98 -104 -22 0 -42 20 -97 94 -20 26 -33 52 -28 56 62 58 108 90 129 90
16 0 42 -16 72 -44z m-683 -36 c-4 -6 -25 -19 -48 -31 l-42 -20 33 30 c30 29
71 43 57 21z m406 -11 c16 -11 50 -49 75 -85 25 -35 57 -73 71 -84 54 -42 118
-13 170 79 37 65 53 81 80 81 16 0 30 -11 43 -32 26 -42 25 -46 -6 -60 -34
-16 -85 -124 -120 -255 l-27 -101 -31 19 c-55 33 -157 21 -194 -24 -7 -8 -22
-12 -36 -10 -52 10 -93 -41 -141 -179 -15 -42 -37 -86 -50 -98 l-23 -21 -19
21 c-11 11 -44 87 -72 168 -29 81 -61 161 -70 178 -18 30 -18 31 6 60 13 16
50 83 83 149 35 70 78 140 103 168 39 42 48 47 86 47 27 0 54 -8 72 -21z m799
-68 c24 -16 67 -58 95 -92 28 -35 66 -74 85 -87 31 -21 42 -23 95 -17 123 12
134 7 206 -102 26 -38 61 -81 79 -96 21 -18 26 -27 15 -27 -8 0 -42 -13 -75
-30 -82 -41 -122 -40 -184 8 -57 43 -116 126 -188 266 -50 97 -87 136 -129
136 -26 0 -67 -38 -104 -96 -46 -71 -60 -76 -96 -33 -35 42 -96 156 -88 164
11 10 141 33 195 34 41 1 60 -5 94 -28z m-1456 -41 c41 -15 -169 -111 -239
-110 -16 1 -6 14 42 60 34 32 72 60 85 62 26 5 83 -2 112 -12z m240 -271 c37
-44 48 -67 101 -219 63 -180 94 -221 149 -201 30 12 65 69 105 175 29 74 54
116 72 116 4 0 -10 -37 -31 -82 -21 -46 -62 -155 -90 -243 -29 -88 -61 -176
-71 -196 -27 -54 -68 -99 -90 -99 -33 0 -257 89 -389 155 -101 50 -155 69
-278 100 l-153 38 23 24 c49 53 108 66 175 38 53 -22 75 -19 120 20 29 25 60
71 108 166 79 151 150 239 195 239 19 0 37 -10 54 -31z"/>
</g>
</svg>
