<?xml version="1.0" encoding="UTF-8" standalone="no"?>
<svg
   version="1.0"
   width="173mm"
   height="125mm"
   viewBox="0 0 490.3937 354.3307"
   preserveAspectRatio="xMidYMid"
   id="svg48"
   sodipodi:docname="2023-04-05-cubic_disarray.svg"
   inkscape:version="1.2.2 (b0a8486, 2022-12-01)"
   xmlns:inkscape="http://www.inkscape.org/namespaces/inkscape"
   xmlns:sodipodi="http://sodipodi.sourceforge.net/DTD/sodipodi-0.dtd"
   xmlns="http://www.w3.org/2000/svg"
   xmlns:svg="http://www.w3.org/2000/svg">
  <defs
     id="defs52" />
  <sodipodi:namedview
     id="namedview50"
     pagecolor="#ffffff"
     bordercolor="#000000"
     borderopacity="0.25"
     inkscape:showpageshadow="2"
     inkscape:pageopacity="0.0"
     inkscape:pagecheckerboard="0"
     inkscape:deskcolor="#d1d1d1"
     inkscape:document-units="pt"
     showgrid="false"
     inkscape:zoom="1.32715"
     inkscape:cx="327.01654"
     inkscape:cy="236.22047"
     inkscape:window-width="1440"
     inkscape:window-height="847"
     inkscape:window-x="0"
     inkscape:window-y="25"
     inkscape:window-maximized="0"
     inkscape:current-layer="layer2" />
  <g
     inkscape:groupmode="layer"
     id="layer1"
     inkscape:label="1_black">
    <g
       transform="matrix(0.06163928,0,0,-0.06163928,52.323865,369.83187)"
       fill="#000000"
       stroke="none"
       id="g46">
      <g
         id="g621"
         style="display:inline">
        <path
           style="fill:none;stroke:#000000;stroke-width:1"
           d="m 1198.469,5205.9246 -4.3936,-4.3936 M 1204.8779,4627.0062 1192.8718,4615 c -16.0082,-16.0082 2.4151,-30.1031 18.4233,-14.0949 l 26.101,26.1011 m -552.40214,-617.4386 9.9079,9.9079 m 458.57814,3.3235 69.7152,69.7153 c 4.1768,4.1767 3.8058,-28.7124 -0.3709,-32.8891 v 0 c -4.1767,-4.1768 -24.109,-56.6273 -19.9323,-52.4505 l 36.4861,36.486 m -565.48512,-565.4851 6.49263,6.4927 m 1099.83939,1067.3212 -5.5116,-5.5116 m -556.2418,-978.9783 2.9982,2.9982 c 3.9975,3.9976 0.8059,-31.7122 -3.1916,-35.7098 l -37.2702,-37.2701 c -3.9952,-3.9953 33.0063,0.4881 37.0015,4.4833 v 0 c 3.9953,3.9952 21.004,-11.5143 17.0087,-15.5095 l -0.5314,-0.5314 c -4.7037,-4.7038 -7.6834,-40.2017 -2.9797,-35.4979 l 39.4159,39.4159 m 1076.0832,1173.6377 -17.0936,-17.0935 m -576.9188,-576.9188 16.144,16.1439 m 1121.9954,1089.4772 12.3421,12.3421 c 4.7078,4.7079 23.2344,-9.2838 18.5265,-13.9916 l -0.7826,-0.7827 c -3.6644,-3.6644 -2.2922,-34.8103 1.3722,-31.1459 v 0 c 3.6644,3.6644 4.9778,-27.5405 1.3134,-31.2049 l -3.4067,-3.4066 m -542.5301,-510.012 -8.3803,-8.3802 m -634.3346,-1057.071 -15.0416,-15.0416 c -16.2591,-16.2591 -10.8424,-43.3606 5.4167,-27.1015 l 42.7045,42.7045 c 3.6806,3.6805 26.9437,-5.5746 23.2631,-9.2551 l -2.7604,-2.7604 m 1682.976,1682.9759 5.1948,5.1948 M 655.99127,2387.1737 l 10.69093,10.691 m 2227.6846,2195.1664 15.6994,15.6993 c 10.0642,10.0643 33.3099,0.7918 23.2457,-9.2724 v 0 c -10.0643,-10.0643 21.3326,-11.1856 31.3969,-1.1213 l 8.6695,8.6695 m -1251.643,-1251.643 12.5788,12.5788 m 525.8862,168.1861 -8.0793,-8.0793 m -528.0068,-560.5249 26.2332,26.2332 m 1148.3931,1050.8385 -11.4106,-11.4106 c -15.2142,-15.2142 11.4869,-21.0313 26.7011,-5.8171 l 6.0073,6.0073 c 11.659,11.659 36.31,3.7918 24.6509,-7.8673 l -8.7443,-8.7443 m -1735.5134,-1702.9952 -6.7063,-6.7063 m 2334.5892,2302.071 -20.0887,-20.0887 c -3.6874,-3.6874 3.8463,-28.6719 7.5337,-24.9845 l 2.7655,2.7655 M 713.45147,1729.2338 l -6.86324,-6.8632 m 3904.99887,3482.2624 -8.3185,-8.3185 c -11.0914,-11.0914 11.8025,-20.7157 22.8939,-9.6243 l 5.9168,5.9169 c 5.8655,5.8654 -3.6068,-36.125 -9.4722,-41.9905 l -4.3992,-4.3991 m -1143.6692,-1078.6329 10.8464,10.8464 c 14.4618,14.4618 12.8359,-19.6823 -1.6259,-34.1441 l -11.1811,-11.1811 c -16.2591,-16.2591 40.7007,-24.3357 56.9598,-8.0766 l 12.5395,12.5395 m -1719.9477,-1687.4295 -4.7719,-4.7719 m 604.8197,572.3016 -13.5085,-13.5086 m -660.16,-660.16 -6.5266,-6.5266 c -8.7023,-8.7022 0.9206,-31.5976 9.6228,-22.8954 l 27.5419,27.5419 m 1206.841,1206.841 15.1531,15.1532 c 4.1593,4.1592 45.1155,12.5972 40.9562,8.438 l -3.1195,-3.1195 m -1765.9841,-1765.9841 4.8712,4.8711 c 6.4949,6.4949 19.5302,-12.9879 13.0354,-19.4828 l -17.9066,-17.9065 m 1060.7907,1028.2724 5.4912,5.4913 m 2283.6924,2218.656 -7.5591,-7.5591 m -1764.0264,-1991.6537 14.5226,14.5226 m -1628.343,-1628.343 -2.1696,-2.1696 c -2.8545,-2.8545 -2.842,-35.3602 0.013,-32.5057 l 2.1409,2.1409 m 2761.0983,2761.0983 -2.9436,-2.9436 c -3.9248,-3.9248 16.3119,-16.2062 20.2367,-12.2815 l 49.2481,49.2482 c 14.6479,14.6478 8.2418,-24.2765 -6.4061,-38.9244 l -5.0252,-5.0251 c -7.9476,-7.9477 24.5706,-7.9477 32.5182,0 l 5.9608,5.9607 m 513.0421,578.0785 17.0125,17.0125 m -1682.9544,-1715.4726 15.1272,15.1272 c 16.2591,16.2591 38.4305,5.9123 22.1714,-10.3468 l -12.6536,-12.6536 m -104.8879,-72.3696 15.1722,15.1721 m -1062.2923,-1062.2923 -4.6481,-4.648 c -6.1974,-6.1975 35.3863,2.8681 41.5838,9.0655 l 9.5826,9.5826 c 5.5886,5.5886 22.4895,-10.0287 16.9008,-15.6173 l -4.1914,-4.1915 m 1659.839,1692.3572 -40.9755,-40.9754 c -3.5625,-3.5626 9.0912,-23.4271 12.6537,-19.8645 l 2.6719,2.6719 M 1246.5789,1189.261 l 4.2438,4.2438 m 2340.4247,2275.3884 -4.6815,-4.6815 m -1770.3168,-1770.3168 -30.7276,-30.7277 c -4.4094,-4.4093 7.3355,-25.1826 11.7449,-20.7732 v 0 c 4.4094,4.4093 50.912,18.3938 46.5026,13.9844 l -3.6221,-3.6222 m 1057.0805,764.4169 -15.6663,-15.6663 m -545.827,-545.827 -14.2671,-14.2671 c -5.1343,-5.1343 8.6878,-23.8304 13.8221,-18.6961 v 0 c 5.1344,5.1344 4.5172,-28.001 -0.6172,-33.1354 l -18.1744,-18.1744 c -16.2591,-16.2591 -1.5315,-34.0496 14.7276,-17.7906 l 32.6237,32.6237 m 2188.9439,2253.9803 9.6266,9.6266 c 10.1327,10.1327 32.2107,-0.3074 22.078,-10.4402 l -7.5996,-7.5996 m -509.8915,-542.4097 -26.4035,-26.4035 m -2238.5645,-2238.5644 -4.7077,-4.7078 m 3414.6227,3382.1045 5.18,5.1801 m -2255.5263,-2255.5264 -46.0916,-46.0915 m 153.0482,55.4936 7.6716,7.6715 m -485.0314,-582.5859 -4.1432,-4.1432 m 297.8026,37.6571 5.9446,5.9446 c 7.9261,7.9262 13.7167,-51.3197 5.7905,-59.2458 l -25.9669,-25.967 m -546.8571,-514.3388 5.3403,5.3402 c 7.1204,7.1204 36.9508,-28.0855 29.8304,-35.2059 l -6.5071,-6.5072 m 3390.1338,3422.652 11.9079,11.9079 m -563.47,-595.9882 22.0766,22.0766 m -528.3504,-593.3867 30.6266,30.6266 m -31.0526,-161.1253 -7.099,-7.0991 m -1909.6946,-2072.2856 4.826,4.8261 m 136.4648,71.4285 -3.2149,-3.215 c -4.2866,-4.2866 13.4121,-19.1061 17.6987,-14.8195 l 27.895,27.895 m 440.7728,440.7728 18.4994,18.4994 m 1237.7102,1205.192 -26.0628,-26.0627 c -7.6573,-7.6574 13.5933,-18.9249 21.2507,-11.2676 v 0 c 7.6573,7.6574 27.2085,-5.3096 19.5511,-12.967 l -21.746,-21.746 m -1735.3898,-1670.3534 -4.9258,-4.9258 m 2857.5801,2792.5437 -10.9289,-10.9289 m -2193.7731,-2193.7732 -10.7143,-10.7142 m 1091.6811,1026.6447 6.8546,6.8546 m -520.1645,-520.1645 -4.5725,-4.5725 m -546.2488,-643.8033 8.6529,8.6528 m -127.4992,-387.6446 -4.1852,-4.1853 m -80.8493,-145.8857 -11.6877,-11.6877 c -3.3443,-3.3443 14.6272,-17.8909 17.9715,-14.5466 l 2.5082,2.5082 m 2335.1799,2335.1798 -3.0204,-3.0204 c -4.0272,-4.0272 25.1619,-39.8745 29.1891,-35.8473 l 13.8907,13.8907 M 4625.024,2388.9876 l 12.0641,12.064 m -74.0943,-74.0942 5.1179,5.1179 c 6.8239,6.8239 6.4762,-26.042 -0.3477,-32.8659 l -3.3112,-3.3112 c -11.2388,-11.2388 -6.1766,-38.6948 5.0623,-27.4559 l 9.7062,9.7062 c 7.498,7.498 57.4232,24.905 49.9252,17.407 l -5.6235,-5.6235 m 538.3737,603.4101 -19.388,-19.388 c -7.3363,-7.3364 1.9098,-30.6085 9.2461,-23.2721 l 5.5023,5.5023 m -1161.8395,-1129.3214 -25.9518,-25.9517 c -3.5627,-3.5627 16.5027,-16.0155 20.0654,-12.4528 v 0 c 3.5626,3.5626 17.4675,-15.0507 13.9049,-18.6133 l -8.5253,-8.5254 m -480.5303,-415.4938 4.2858,4.2857 c 3.5082,3.5083 19.7788,-12.7394 16.2705,-16.2476 l -2.6312,-2.6313 m -509.964,-477.44574 4.4943,4.49431 c 5.9924,5.99242 24.6461,-7.87209 18.6537,-13.86451 l -9.4769,-9.47691 m 2168.0688,2168.06885 12.0322,12.0322 c 9.4689,9.4689 38.8579,6.3397 29.389,-3.1292 l -7.1017,-7.1017 m -1104.0978,-1071.5796 -10.1183,-10.1183 c -13.491,-13.491 5.4362,-27.082 18.9272,-13.591 l 24.6346,24.6346 m 159.9797,-2.6113 5.8191,5.8191 m 138.7852,8.7125 -2.8725,-2.8725 c -3.83,-3.8299 63.4136,-1.6228 67.2436,2.2072 l 34.7785,34.7785 c 6.4988,6.4988 6.8207,-25.6974 0.322,-32.1962 l -4.8741,-4.8741 m -636.0682,-538.5135 -4.4218,-4.4219 c -5.8958,-5.8958 15.1258,-17.3924 21.0216,-11.4966 l 5.6821,5.6821 m 1148.8558,1116.3377 -6.6337,-6.6337 c -8.8449,-8.8449 9.2156,-23.3027 18.0605,-14.4577 l 23.4181,23.4181 c 16.2591,16.2591 54.9047,22.3864 38.6456,6.1273 l -26.8285,-26.8284 m 590.058,557.5398 -10.4571,-10.4571 m -1195.3688,-1683.1417 -6.1921,-6.192 c -8.256,-8.2561 33.6034,1.0851 41.8594,9.3412 l 21.8857,21.8857 m 565.9472,565.9472 -7.5599,-7.56 m -404.6131,-567.204 -26.8872,-26.8872 m -63.6281,-551.40086 -4.073,-4.07304 c -5.4307,-5.43072 7.88,-24.63819 13.3107,-19.20747 l 13.3647,13.36469 m 437.9738,437.97378 -19.3521,-19.352 c -3.0116,-3.0117 20.9699,-11.5483 23.9816,-8.5367 v 0 c 3.0116,3.0116 16.4144,-16.1037 13.4028,-19.1153 l -10.4632,-10.4632 m 162.4052,162.4052 21.5374,21.5373 m 365.667,-24.5512 12.2623,12.2623"
           id="path619" />
        <g
           id="g652">
          <path
             d="m 630,5490 c 0,-180 -4,-280 -10,-280 -12,0 -13,-221 -3,-437 l 6,-143 h 279 c 250,0 278,-2 278,-16 0,-15 -25,-16 -254,-12 l -254,4 -6,-96 c -4,-52 -6,-277 -4,-500 1,-223 -2,-428 -6,-457 -7,-47 -11,-52 -37,-58 -16,-4 -29,-12 -29,-18 0,-7 9,-129 20,-272 11,-143 20,-268 20,-277 0,-13 8,-18 28,-18 h 28 l -23,-242 c -12,-134 -22,-246 -23,-250 0,-5 -20,-8 -45,-8 h -46 l 6,-97 c 3,-54 10,-185 15,-292 5,-106 11,-195 13,-197 4,-5 458,14 535,22 51,5 53,7 48,32 -3,15 -8,114 -12,221 l -6,194 34,-7 35,-6 6,47 c 13,105 49,534 46,538 -4,3 -431,45 -465,45 -10,0 -15,2 -13,4 2,2 91,10 197,17 157,10 195,10 201,0 7,-10 48,-11 212,-2 112,6 263,13 334,16 141,4 578,35 583,40 2,2 -5,121 -15,264 -18,250 -18,261 -1,261 17,0 18,18 18,260 0,211 3,260 13,260 14,0 26,189 28,434 0,56 5,110 10,121 6,13 7,-24 4,-107 -7,-140 -25,-1012 -21,-1015 1,-1 133,-5 294,-9 218,-5 292,-4 292,4 0,7 7,12 16,12 11,0 14,-8 12,-27 -3,-26 -6,-28 -43,-26 -315,17 -497,25 -501,20 -3,-2 -11,-117 -19,-253 -8,-137 -14,-250 -15,-251 0,-2 -116,-3 -257,-3 -142,0 -282,-3 -310,-6 l -53,-7 v -38 c 0,-30 -4,-39 -17,-39 -10,0 -114,10 -231,22 -116,11 -214,19 -217,16 -7,-7 -66,-570 -61,-575 4,-4 430,-52 465,-53 8,0 12,-2 9,-5 -5,-5 -296,19 -358,29 l -26,5 -22,-244 c -12,-134 -27,-258 -34,-275 l -11,-32 -81,6 c -44,3 -174,9 -288,12 l -207,7 -5,-34 c -3,-19 -7,-110 -10,-203 -3,-102 -10,-172 -16,-176 -6,-4 -52,-12 -102,-19 -51,-6 -94,-13 -96,-15 -4,-5 76,-567 82,-574 8,-7 559,69 570,79 5,4 -1,72 -13,156 -30,207 -37,187 64,180 l 85,-6 v 24 c 0,14 5,25 12,25 21,0 502,-62 517,-66 8,-3 11,-7 8,-10 -3,-4 -107,4 -231,17 -124,12 -227,21 -230,18 -4,-5 -64,-573 -61,-577 3,-3 543,-61 572,-62 6,0 14,25 18,60 l 7,60 61,-1 c 34,0 142,-6 240,-12 175,-12 178,-12 182,8 4,20 35,502 35,542 0,12 -8,24 -17,26 -10,3 0,6 22,7 22,1 117,7 210,14 94,7 173,11 178,9 4,-2 7,-32 7,-67 v -62 l -137,17 c -76,9 -140,15 -142,13 -5,-4 -73,-575 -69,-579 2,-2 131,-19 288,-37 196,-24 287,-31 291,-24 4,6 12,66 19,133 15,142 -3,128 180,138 63,3 127,8 143,11 24,5 27,3 27,-22 v -27 l 98,6 c 53,4 186,10 295,13 l 199,7 -8,211 c -5,116 -9,238 -9,271 v 60 l 33,3 c 31,3 32,2 32,-32 0,-43 -28,-40 260,-21 118,8 215,13 216,12 1,-1 4,-19 8,-39 7,-38 7,-38 -26,-38 -18,0 -106,5 -196,11 -90,6 -166,9 -168,6 -5,-4 -43,-506 -44,-568 0,-13 40,-18 278,-32 152,-10 285,-17 295,-17 14,0 17,9 17,49 0,28 4,52 9,55 5,3 100,19 212,36 112,16 216,32 231,35 27,4 28,3 28,-35 0,-25 5,-40 13,-40 58,-1 564,35 571,40 4,5 1,117 -8,250 -9,133 -14,246 -11,251 4,5 20,9 37,9 h 31 l -7,213 c -3,116 -9,249 -13,295 -6,83 -6,83 -32,78 -14,-3 -123,-8 -241,-11 -118,-3 -239,-8 -268,-12 l -53,-5 7,-60 7,-59 -39,6 c -110,16 -368,44 -371,41 -3,-3 -53,-387 -53,-413 0,-11 -86,-30 -95,-22 -3,4 -35,462 -35,508 0,20 5,21 168,21 245,0 422,11 422,25 0,14 168,25 386,25 h 143 l -6,260 -6,260 h 42 c 29,0 43,5 48,16 5,15 -31,466 -43,527 -4,21 -2,27 12,27 15,0 16,9 11,83 -4,45 -10,157 -13,250 -6,151 -5,167 10,167 11,0 16,9 16,33 0,17 7,148 16,290 13,223 14,260 1,270 -12,10 -13,55 -6,292 5,176 5,281 -1,283 -6,2 -10,224 -10,583 v 579 H 3200 630 Z m 570,-5 V 5220 H 971 c -125,0 -249,-3 -275,-6 l -46,-7 v 272 271 h 275 275 z m 570,0 v -265 h -275 -275 v 265 265 h 275 275 z m 560,2 v -264 l -182,-6 c -99,-4 -221,-7 -270,-7 h -88 v 270 270 h 270 270 z m 570,-12 v -275 h -270 -270 v 275 275 h 270 270 z m 570,7 v -269 l -142,-6 c -79,-4 -200,-7 -270,-7 h -128 v 275 275 h 270 270 z m 570,-7 v -275 h -270 -270 v 275 275 h 270 270 z m 570,16 c 0,-143 -3,-266 -6,-275 -5,-14 -39,-16 -270,-16 h -264 v 275 275 h 270 270 z m 570,-6 v -265 h -275 -275 v 265 265 h 275 275 z m 570,-4 v -268 l -31,-7 c -17,-3 -141,-6 -275,-6 h -244 v 275 275 h 275 275 z M 1180,4915 V 4650 H 912 643 l -6,128 c -4,70 -7,189 -7,265 v 137 h 275 275 z m 570,0 v -265 h -270 -270 v 138 c 0,75 -3,194 -7,265 l -6,127 h 276 277 z m 570,83 c 0,-101 3,-219 6,-264 l 7,-81 -273,-7 c -150,-4 -274,-5 -275,-4 -1,2 -5,123 -8,271 l -6,267 h 275 274 z m 33,-20 c -2,-112 -6,-207 -8,-213 -2,-5 -4,86 -4,203 -1,120 3,212 8,212 5,0 7,-85 4,-202 z m 1117,-66 v -269 l -182,-6 c -99,-4 -219,-7 -265,-7 h -83 v 253 c 0,138 3,262 6,275 l 6,22 h 259 259 z m 1698,1 2,-263 h -266 -267 l 6,188 c 4,103 7,222 7,265 v 77 l 258,-2 257,-3 z m 582,-1 v -269 l -122,-6 c -66,-4 -190,-7 -275,-7 h -153 v 275 275 h 275 275 z m -2854,245 c 1,-1 3,-123 5,-272 l 4,-270 h -72 c -40,0 -161,2 -268,3 l -195,2 v 208 c 0,114 3,238 7,276 l 6,69 256,-7 c 140,-4 256,-8 257,-9 z m 1154,-262 v -275 h -78 c -44,0 -167,3 -275,7 l -197,6 v 269 268 h 275 275 z m 548,5 c 2,-196 6,-266 15,-272 6,-4 -113,-8 -267,-8 h -279 l 7,46 c 3,26 6,150 6,276 v 228 l 258,-2 257,-3 z m 29,68 c -1,-40 -3,-10 -3,67 0,77 1,110 3,73 2,-37 2,-100 0,-140 z M 1753,4523 c 4,-58 7,-177 7,-264 v -158 l -52,-10 c -29,-6 -144,-13 -256,-17 l -203,-7 3,266 3,266 -30,4 c -16,2 4,5 45,7 67,2 326,13 436,18 l 41,2 z m 590,100 c -7,-2 -21,-2 -30,0 -10,3 -4,5 12,5 17,0 24,-2 18,-5 z m 2845,-9 c 15,-16 -3,-16 -258,-10 -151,4 -279,12 -284,17 -6,5 94,9 258,9 235,0 269,-2 284,-16 z m -3411,-31 c -3,-10 -5,-4 -5,12 0,17 2,24 5,18 2,-7 2,-21 0,-30 z m 489,21 81,-6 -3,-66 c -2,-37 -7,-161 -11,-277 -4,-115 -9,-198 -11,-182 l -3,27 h -265 -264 v 208 c 0,114 3,231 7,260 l 6,53 191,-6 c 105,-3 227,-8 272,-11 z m 1218,-1 c 6,-15 -5,-16 -130,-10 -76,4 -178,8 -228,9 l -91,2 100,6 c 55,3 155,7 221,8 105,2 123,0 128,-15 z m 2243,-9 41,-5 -4,-237 c -3,-130 -7,-252 -10,-271 l -5,-34 -257,7 c -141,4 -259,10 -263,14 -3,4 -3,124 1,267 4,161 3,262 -3,266 -11,8 434,1 500,-7 z m -1667,-72 c 0,-44 -3,-154 -7,-245 l -6,-167 h -29 c -24,0 -28,-4 -28,-30 v -30 h -174 c -95,0 -201,3 -236,7 l -62,6 6,126 c 20,425 20,399 -1,404 -10,3 107,5 260,6 l 277,1 z m 311,68 h 259 v -260 -260 h -25 c -20,0 -25,5 -25,25 v 25 l -250,-6 -250,-7 v 247 c 0,222 2,248 16,242 9,-3 132,-6 275,-6 z M 980,4580 h 197 l 6,-67 c 4,-38 9,-155 13,-260 6,-175 5,-193 -10,-193 -9,0 -16,-7 -16,-15 0,-18 -45,-19 -317,-8 l -173,6 v 212 c 0,117 3,240 7,275 l 6,62 45,-6 c 25,-3 134,-6 242,-6 z m 1803,-6 168,-6 -5,-67 c -3,-36 -9,-150 -12,-253 -6,-176 -7,-188 -25,-188 -10,0 -19,-4 -19,-10 0,-11 -259,-14 -414,-3 l -98,6 6,126 c 3,69 9,191 12,270 l 6,143 107,-6 c 58,-3 182,-9 274,-12 z m 520,0 187,-6 v -102 c 0,-55 -3,-164 -7,-242 l -6,-141 -126,-6 c -69,-4 -188,-10 -265,-13 l -138,-7 6,69 c 3,38 8,158 12,267 l 6,198 72,-5 c 39,-3 155,-8 259,-12 z m 1803,6 h 92 l -2,-275 c -1,-255 -2,-275 -18,-275 -14,0 -18,9 -18,40 v 41 l -62,-6 c -125,-11 -344,-25 -393,-25 h -50 l 6,237 c 4,131 7,247 8,257 1,18 8,19 174,13 94,-4 213,-7 263,-7 z m -3870,-16 c -3,-9 -7,-118 -7,-242 -2,-203 -3,-215 -9,-112 -4,63 -10,172 -14,243 -5,124 -5,127 15,127 15,0 19,-5 15,-16 z m 2281,-76 c -2,-18 -4,-6 -4,27 0,33 2,48 4,33 2,-15 2,-42 0,-60 z m 1043,-412 c 0,-14 -4,-27 -9,-30 -5,-3 -113,-3 -240,1 -214,6 -231,8 -231,24 0,17 13,19 168,22 92,1 200,4 240,5 70,2 72,1 72,-22 z m -510,-6 c 0,-13 -7,-20 -20,-20 -13,0 -20,7 -20,20 0,13 7,20 20,20 13,0 20,-7 20,-20 z m 1090,-12 v -31 l -152,6 c -83,4 -194,7 -246,7 -53,0 -92,3 -88,8 4,4 110,14 234,23 125,9 233,17 240,18 7,0 12,-11 12,-31 z m -2840,12 c 0,-11 -230,-12 -405,0 -89,5 -61,7 148,8 166,1 257,-2 257,-8 z m -570,-269 v -260 l -42,-5 c -50,-6 -441,-27 -444,-23 -1,1 3,114 9,251 8,206 7,250 -4,257 -11,6 -11,9 1,14 14,5 282,20 418,24 l 62,1 z m 1730,237 c 0,-20 -2,-21 -97,-15 -54,4 -145,7 -202,7 -57,0 -101,3 -97,7 6,6 183,18 329,21 62,2 67,1 67,-20 z m -1263,2 h 103 v -255 c 0,-163 -4,-255 -10,-255 -5,0 -10,10 -10,21 0,20 -4,21 -47,16 -97,-12 -433,-30 -439,-24 -4,3 -10,89 -15,189 -5,101 -10,214 -12,252 l -5,69 166,-6 c 91,-4 212,-7 269,-7 z m 2426,3 c -7,-2 -19,-2 -25,0 -7,3 -2,5 12,5 14,0 19,-2 13,-5 z m -3406,-9 c -3,-3 -12,-4 -19,-1 -8,3 -5,6 6,6 11,1 17,-2 13,-5 z m 2283,-4 c 0,-5 -4,-10 -10,-10 -5,0 -10,5 -10,10 0,6 5,10 10,10 6,0 10,-4 10,-10 z m 2133,-10 c 76,-5 141,-10 143,-13 3,-2 -2,-116 -11,-251 -8,-136 -15,-259 -15,-272 0,-14 -4,-22 -10,-19 -5,3 -10,20 -10,37 v 31 l -117,-6 c -299,-16 -413,-19 -413,-11 0,5 7,108 15,229 8,121 15,237 15,258 v 38 l 133,-6 c 72,-4 194,-10 270,-15 z m -1202,3 126,-6 6,-231 c 3,-127 5,-232 4,-232 -1,-1 -108,-5 -238,-9 l -236,-8 4,234 c 3,129 6,240 8,247 5,14 121,16 326,5 z m -3335,-19 81,-6 7,-166 c 4,-92 9,-202 13,-244 4,-55 2,-78 -6,-78 -6,0 -11,6 -11,13 0,10 -52,8 -251,-6 -138,-10 -252,-17 -254,-15 -3,4 16,490 20,504 3,11 227,10 401,-2 z m 1700,0 91,-6 6,-96 c 4,-53 10,-173 13,-266 l 7,-169 -269,7 c -148,4 -269,8 -270,9 -1,1 1,123 4,270 l 5,269 161,-6 c 89,-4 202,-9 252,-12 z m 525,0 137,-6 6,-116 c 3,-65 9,-174 12,-243 l 7,-126 -149,-7 c -82,-3 -205,-9 -273,-13 l -124,-6 6,153 c 4,84 7,205 7,267 v 115 l 118,-6 c 64,-3 178,-9 253,-12 z m 455,6 h 214 v -78 c 0,-44 3,-154 7,-245 l 6,-167 h 34 c 26,0 33,-4 33,-20 0,-20 -5,-20 -272,-14 -150,4 -273,7 -274,8 0,1 1,119 4,264 4,226 6,262 19,258 8,-3 111,-6 229,-6 z m 1362,-4 c 6,-7 35,-456 29,-462 -8,-8 -531,-42 -538,-35 -3,3 -11,96 -18,206 -6,110 -14,224 -18,254 l -6,54 273,-7 c 151,-3 276,-8 278,-10 z m 66,-113 c -4,-65 -10,-145 -13,-178 -6,-54 -8,-45 -14,75 -4,74 -10,154 -13,178 -6,40 -5,42 20,42 h 27 z m -3967,-30 c -4,-75 -7,-173 -8,-217 -1,-148 -16,-48 -24,157 l -7,197 h 23 22 z m 1691,5 c -1,-133 -1,-133 -9,-48 -10,124 -10,180 1,180 6,0 9,-50 8,-132 z m 581,-80 c -2,-240 -12,-219 -23,45 -6,147 -5,167 9,167 13,0 15,-27 14,-212 z m 571,50 c 0,-90 -3,-193 -7,-230 -5,-61 -8,-68 -28,-68 -21,0 -22,4 -28,152 -4,83 -7,186 -7,230 v 78 h 35 35 z m 507,-145 c -2,-16 -4,-3 -4,27 0,30 2,43 4,28 2,-16 2,-40 0,-55 z m -2824,-51 c 3,-68 2,-110 -4,-107 -5,4 -9,56 -9,117 0,61 2,109 4,107 2,-2 6,-55 9,-117 z m 2843,-131 c 5,-30 8,-33 35,-29 26,4 29,2 29,-24 0,-16 -6,-31 -14,-34 -8,-3 -130,6 -272,20 -141,14 -258,25 -259,24 -1,-2 -13,-120 -27,-263 l -26,-260 -1,243 c -1,155 3,242 9,242 6,0 10,20 10,44 v 44 l 250,7 250,7 2,67 2,66 3,-60 c 2,-33 6,-75 9,-94 z m -2346,29 c 0,-6 -36,-9 -92,-8 l -93,2 75,6 c 41,4 83,7 93,8 9,1 17,-2 17,-8 z m 2903,-32 c -17,-8 -21,-17 -17,-34 5,-19 2,-24 -12,-24 -45,-1 -407,35 -391,38 21,4 357,29 407,30 32,1 33,0 13,-10 z m -4003,-29 c 0,-30 -1,-31 -37,-25 -21,3 -132,8 -248,13 -116,4 -200,9 -188,11 35,5 353,29 416,31 l 57,1 z m 1123,-223 c 9,-137 16,-251 14,-252 -3,-3 -325,-27 -477,-36 l -45,-3 -11,195 c -7,107 -12,227 -13,267 -1,67 1,72 22,76 12,2 128,4 257,3 l 235,-1 z m 3427,233 c 0,-21 -2,-21 -152,-14 -254,11 -222,22 95,33 52,2 57,0 57,-19 z M 1713,3236 c 10,-142 16,-260 13,-263 -3,-4 -111,-12 -238,-19 -283,-16 -280,-16 -274,-6 2,4 -3,114 -13,245 l -17,237 h 28 c 20,0 27,5 30,23 3,22 6,22 218,33 118,6 220,10 225,9 6,-1 18,-110 28,-259 z m -507,240 c 19,-20 18,-26 -6,-26 -13,0 -20,7 -20,20 0,24 6,25 26,6 z m 521,-83 c -2,-21 -4,-6 -4,32 0,39 2,55 4,38 2,-18 2,-50 0,-70 z m 1761,70 c -2,-23 -8,-28 -28,-26 -14,1 -92,7 -175,13 -82,6 -161,14 -175,18 -25,7 107,16 293,20 l 88,2 z m 1957,0 c 138,-8 255,-16 261,-18 7,-2 14,-90 22,-241 6,-131 10,-239 9,-240 -5,-4 -519,-26 -522,-22 -3,3 26,347 40,456 l 5,42 h -44 c -39,0 -44,3 -49,26 -4,20 -1,24 12,18 9,-3 129,-13 266,-21 z m -4795,3 c 0,-11 43,-15 218,-20 119,-4 233,-9 253,-12 l 36,-5 7,-82 c 3,-45 9,-150 12,-232 l 7,-151 -262,-18 c -145,-10 -264,-16 -267,-14 -6,7 -44,531 -38,540 8,13 34,9 34,-6 z m 3188,-3 c -32,-2 -86,-2 -120,0 -35,2 -9,3 57,3 66,0 94,-1 63,-3 z m 1107,-19 c 105,-9 193,-19 196,-23 4,-3 12,-116 19,-251 8,-165 15,-247 23,-252 7,-5 0,-8 -15,-8 -25,0 -28,3 -28,36 v 37 l -235,-7 c -178,-6 -235,-5 -235,4 0,7 9,105 21,218 17,176 18,207 6,214 -9,4 -12,17 -9,33 4,22 8,25 36,20 17,-2 117,-12 221,-21 z m -1695,-10 c 107,-8 204,-17 215,-19 19,-4 20,-12 20,-280 v -276 l -25,6 c -14,4 -26,8 -27,9 -2,1 -6,30 -9,64 -4,34 -10,62 -13,62 -3,0 -100,-12 -214,-26 -115,-14 -210,-24 -212,-22 -1,2 3,104 10,228 7,124 8,227 4,228 -5,2 -9,12 -9,23 0,24 5,24 260,3 z m 591,6 h 209 v -263 -262 l -262,4 c -145,1 -265,5 -267,7 -4,3 22,338 35,452 6,51 6,52 -20,52 -14,0 -26,5 -26,11 0,8 18,10 61,5 34,-3 156,-6 270,-6 z m 589,-21 c 124,-12 227,-23 228,-24 4,-4 -27,-368 -34,-402 -3,-16 -14,-24 -39,-29 -34,-6 -34,-6 -28,-51 l 6,-44 -49,6 c -134,15 -397,33 -411,28 -13,-5 -15,0 -10,38 3,24 16,149 28,277 l 23,232 30,-5 c 17,-2 132,-14 256,-26 z m -1632,-15 c 121,-6 155,-10 159,-22 3,-8 -2,-105 -11,-216 -9,-110 -16,-207 -16,-213 0,-17 -39,-17 -45,0 -4,10 -52,9 -235,-2 -127,-8 -232,-12 -234,-10 -3,3 19,448 23,478 1,2 47,1 104,-2 56,-4 171,-10 255,-13 z m 2417,-206 c -22,-252 -28,-246 -40,45 l -7,177 h 34 33 z m -1681,160 c -3,-29 -11,-118 -19,-198 l -12,-145 -2,182 c -1,189 2,213 25,213 11,0 13,-11 8,-52 z m 1153,0 c -3,-7 -5,-2 -5,12 0,14 2,19 5,13 2,-7 2,-19 0,-25 z M 1737,3248 c -2,-18 -4,-6 -4,27 0,33 2,48 4,33 2,-15 2,-42 0,-60 z m 2940,10 c -2,-13 -4,-3 -4,22 0,25 2,35 4,23 2,-13 2,-33 0,-45 z m -1700,-60 c -2,-13 -4,-3 -4,22 0,25 2,35 4,23 2,-13 2,-33 0,-45 z m 1690,-40 c -2,-13 -4,-5 -4,17 -1,22 1,32 4,23 2,-10 2,-28 0,-40 z M 2965,2992 c -11,-91 -17,-50 -8,59 7,85 9,94 11,49 2,-30 1,-79 -3,-108 z m 1692,61 c -3,-10 -5,-2 -5,17 0,19 2,27 5,18 2,-10 2,-26 0,-35 z M 3404,2929 c 4,-28 5,-53 3,-55 -2,-2 -99,4 -215,13 -158,13 -212,20 -212,30 0,7 8,13 18,14 9,0 98,11 197,23 99,13 185,24 191,25 6,0 14,-22 18,-50 z m 1719,-6 c 4,-20 4,-39 2,-41 -4,-4 -338,23 -423,35 -25,3 -41,10 -39,17 4,12 127,20 338,24 l 116,2 z m -503,2 c 0,-14 5,-25 10,-25 6,0 10,-7 10,-15 0,-10 -10,-15 -29,-15 -25,0 -29,4 -33,35 -2,19 1,37 7,39 24,10 35,4 35,-19 z m -1773,8 c -16,-4 -17,-11 -12,-45 l 7,-41 -58,6 c -33,4 -130,9 -216,13 -155,7 -158,7 -158,29 0,22 4,23 153,32 164,10 313,14 284,6 z m 2867,-25 c 7,-40 46,-466 46,-496 0,-19 -6,-22 -40,-22 -37,0 -40,2 -40,27 v 26 l -234,-6 -235,-7 -5,42 c -6,43 -36,355 -36,370 0,4 6,8 13,8 8,0 18,10 24,23 9,21 21,23 234,43 123,12 234,22 246,23 18,1 23,-6 27,-31 z m -2790,-3 c -4,-10 0,-15 15,-15 14,0 21,-6 21,-20 0,-16 -7,-20 -35,-20 -33,0 -35,2 -35,35 0,28 4,35 20,35 13,0 18,-5 14,-15 z m -624,-27 c 0,-18 7,-127 15,-243 19,-267 19,-275 0,-275 -9,0 -15,9 -15,25 0,22 -4,25 -37,24 -21,0 -123,-11 -228,-23 -104,-13 -191,-22 -193,-21 -2,2 7,105 20,229 13,125 22,229 19,231 -2,3 -24,5 -48,5 -42,0 -43,1 -43,34 0,44 -8,43 283,45 l 227,1 z m 39,-86 c -2,-98 -3,-102 -9,-47 -12,91 -12,167 0,160 6,-4 9,-51 9,-113 z m 51,90 v -28 l 221,-11 c 136,-7 224,-15 228,-22 4,-6 17,-101 30,-212 18,-147 21,-203 12,-208 -17,-11 -421,-33 -458,-25 -22,4 -33,3 -33,-5 0,-6 -7,-11 -15,-11 -12,0 -15,41 -17,275 -3,256 -2,275 15,275 12,0 17,-8 17,-28 z m 480,-4 c 0,-36 -4,-35 -14,5 -4,16 -2,27 4,27 5,0 10,-14 10,-32 z m -1891,-3 c 145,-13 266,-26 268,-29 4,-4 -30,-412 -42,-502 -5,-38 -7,-40 -35,-36 -30,4 -30,5 -30,66 v 61 l -237,-11 c -131,-6 -239,-10 -240,-9 -5,2 42,485 47,485 3,0 124,-11 269,-25 z m 3103,9 c 24,-5 27,-10 21,-33 -3,-14 -7,-27 -8,-29 -1,-1 -114,6 -251,17 -145,12 -251,16 -254,11 -3,-5 -14,-116 -23,-247 -10,-131 -21,-259 -24,-285 -5,-42 -3,-48 13,-48 18,0 19,-6 5,-220 -14,-218 -15,-221 -38,-226 -13,-4 -26,-4 -29,-1 -3,3 -1,99 5,213 6,114 11,229 11,255 v 47 l -177,7 c -290,11 -299,17 -73,43 107,13 202,25 211,28 14,4 12,27 -11,214 -14,116 -24,212 -22,214 2,3 19,2 38,-1 33,-5 34,-5 34,27 v 32 l 273,-5 c 149,-3 284,-9 299,-13 z m 853,-10 c 99,-9 183,-19 186,-23 4,-3 10,-99 14,-213 l 7,-208 h -25 c -14,0 -27,-4 -29,-9 -1,-5 -99,-12 -215,-16 l -213,-7 1,33 c 0,19 8,123 18,232 16,189 16,197 -1,197 -12,0 -18,7 -18,21 0,19 4,20 48,15 26,-3 128,-13 227,-22 z m 255,6 c 0,-5 -4,-10 -10,-10 -5,0 -10,5 -10,10 0,6 5,10 10,10 6,0 10,-4 10,-10 z m -1963,-16 c 97,-8 180,-17 182,-20 5,-5 50,-345 51,-385 v -26 l -266,-32 c -146,-18 -267,-31 -269,-29 -2,2 -8,86 -14,188 -6,102 -14,205 -17,229 l -6,44 46,-5 c 45,-5 46,-5 46,23 0,35 -3,35 247,13 z m 1163,-12 165,-17 6,-110 c 4,-60 6,-182 6,-270 0,-142 -1,-152 -9,-90 l -9,70 -200,-9 c -110,-5 -201,-7 -203,-5 -2,2 2,74 10,159 19,225 19,228 -11,236 -25,6 -30,19 -19,48 4,11 16,14 52,10 26,-3 121,-13 212,-22 z m -2772,-21 147,-16 3,-232 2,-233 h -31 c -31,0 -31,0 -25,-40 4,-29 3,-40 -6,-40 -37,1 -438,47 -442,51 -3,3 44,475 53,537 1,4 98,-4 299,-27 z m 2277,-17 c 110,-8 201,-17 202,-18 2,-1 -5,-89 -14,-194 l -17,-192 h -51 -51 l 4,-72 4,-71 -87,7 c -48,3 -141,9 -207,13 l -120,6 6,31 c 2,17 13,140 22,274 l 18,242 46,-5 c 25,-3 135,-12 245,-21 z m 760,-205 c -18,-208 -18,-209 -42,-209 -22,0 -23,3 -23,73 0,39 -3,136 -7,214 l -6,142 44,3 c 24,2 46,-1 48,-6 2,-4 -5,-102 -14,-217 z m -2795,174 c 0,-16 -9,-111 -20,-213 -11,-102 -20,-191 -20,-197 0,-7 -7,-13 -15,-13 -13,0 -15,32 -15,225 v 225 h 35 c 32,0 35,-3 35,-27 z m 2290,-10 c 0,-20 -26,-338 -30,-360 0,-2 -7,-3 -15,-3 -19,0 -19,12 0,215 8,88 15,163 15,168 0,4 7,7 15,7 10,0 15,-10 15,-27 z m -1273,-30 c -3,-10 -5,-2 -5,17 0,19 2,27 5,18 2,-10 2,-26 0,-35 z m 2307,-260 c 5,-41 3,-53 -7,-53 -11,0 -15,32 -20,137 -10,203 -6,245 8,98 8,-71 16,-154 19,-182 z m 476,-81 c 0,-17 -21,-20 -217,-38 -228,-21 -233,-20 -233,23 0,21 5,22 83,26 45,1 146,4 225,5 131,2 142,1 142,-16 z m -4540,-42 v -51 l -47,6 c -77,9 -366,35 -390,35 -16,0 -23,6 -23,20 0,11 1,21 3,21 5,4 259,16 355,17 l 102,2 z m 3414,28 c 3,-13 6,-38 6,-56 v -32 l -52,6 c -29,3 -118,11 -198,17 l -145,12 -3,32 -3,32 98,4 c 288,9 290,9 297,-15 z m 661,-24 c 6,-45 7,-46 38,-40 54,9 427,40 431,35 2,-2 6,-112 9,-245 l 6,-241 -252,-6 c -138,-4 -252,-5 -253,-4 -1,1 -5,125 -9,275 -6,236 -5,272 8,272 10,0 17,-15 22,-46 z m -4557,-1 -3,-28 235,-22 c 129,-12 240,-22 246,-22 8,-1 14,-70 20,-211 l 9,-210 -30,-5 c -44,-6 -509,-24 -514,-20 -2,2 -7,84 -12,182 -4,98 -10,220 -13,271 l -5,92 h 35 c 33,0 35,-2 32,-27 z m 1642,12 c 0,-13 -20,-15 -127,-14 l -128,2 95,12 c 138,18 160,18 160,0 z m 1780,-20 c 0,-31 3,-35 25,-35 21,0 25,-5 25,-30 v -31 l -57,3 -58,3 -3,63 -3,62 h 36 c 33,0 35,-2 35,-35 z m 60,10 c 0,-18 -5,-25 -20,-25 -15,0 -20,7 -20,25 0,18 5,25 20,25 15,0 20,-7 20,-25 z m -1220,0 c 0,-8 5,-15 10,-15 6,0 10,-10 10,-21 0,-19 -4,-21 -32,-16 -18,3 -94,13 -168,23 -74,11 -121,20 -105,22 17,1 82,6 145,11 63,4 121,9 128,10 6,0 12,-6 12,-14 z m 2201,-185 c 4,-107 7,-228 8,-267 1,-68 3,-73 24,-75 61,-4 -181,-16 -345,-17 l -188,-1 -2,200 c -1,110 -2,212 -2,228 -1,24 2,27 26,24 25,-2 27,0 30,45 l 3,48 200,5 c 110,4 209,6 220,5 19,0 20,-9 26,-195 z m 42,43 c 9,-217 9,-363 -1,-363 -5,0 -12,57 -15,128 -10,179 -9,392 1,392 5,0 12,-71 15,-157 z m -513,108 c 0,-34 -3,-38 -20,-34 -15,4 -20,14 -20,39 0,27 4,34 20,34 17,0 20,-7 20,-39 z m -1935,-12 c 121,-16 221,-32 223,-34 8,-7 -18,-413 -27,-437 -9,-24 -12,-25 -214,-38 -198,-12 -337,-8 -337,11 0,5 5,9 11,9 8,0 10,15 5,47 -5,40 30,356 50,451 6,29 19,29 289,-9 z m -411,-1 c 19,-89 47,-403 39,-435 l -9,-38 -194,-23 c -107,-12 -205,-20 -218,-17 -19,5 -22,10 -17,38 10,61 36,370 31,374 -3,3 -38,8 -78,13 -40,4 -58,8 -40,9 31,1 32,2 32,44 0,24 3,47 7,50 3,4 104,7 224,7 h 219 z m 90,-70 c -7,-51 -16,-121 -20,-156 -4,-34 -9,-61 -11,-58 -3,2 -11,58 -19,123 -7,65 -16,133 -18,151 -5,32 -5,32 38,32 h 43 z m 890,81 c 122,-6 223,-13 225,-15 2,-2 -2,-112 -8,-246 -8,-166 -16,-245 -24,-250 -7,-4 -27,-8 -45,-8 -26,0 -32,-4 -30,-17 2,-11 -3,-18 -12,-18 -8,0 -114,4 -234,9 l -219,9 6,82 c 3,45 16,157 28,250 22,156 22,168 6,176 -9,6 -17,17 -17,24 0,18 28,19 324,4 z m -1454,-34 c 0,-30 -3,-35 -22,-35 -32,0 -45,11 -53,43 -7,26 -6,27 34,27 40,0 41,-1 41,-35 z m 2725,-17 c 7,-7 26,-400 20,-407 -9,-8 -404,-26 -411,-18 -4,3 0,92 7,198 11,176 11,192 -4,201 -16,8 -24,48 -12,59 5,6 394,-26 400,-33 z m -1588,-45 c -3,-10 -5,-2 -5,17 0,19 2,27 5,18 2,-10 2,-26 0,-35 z m 1632,-142 c 1,-63 -1,-112 -3,-110 -2,2 -6,72 -9,154 -3,91 -2,134 3,110 5,-22 9,-91 9,-154 z m -754,158 c 77,-6 142,-12 144,-14 4,-5 20,-267 20,-352 l 1,-63 63,-2 62,-2 -62,-3 -63,-4 -1,-42 c -1,-32 -4,-24 -11,33 -6,41 -11,76 -12,77 -1,2 -89,-8 -196,-22 -107,-14 -196,-23 -198,-20 -6,5 17,403 24,423 3,9 16,12 46,8 24,-3 106,-11 183,-17 z m -2264,-14 c 85,-9 157,-19 160,-23 3,-4 16,-99 28,-212 13,-113 28,-220 34,-237 6,-18 8,-35 5,-39 -7,-6 -466,51 -474,59 -3,3 4,103 15,222 12,119 21,223 21,231 0,18 19,18 211,-1 z m 2578,-50 c 0,-27 -6,-115 -12,-195 l -12,-145 -52,-3 -53,-3 -1,53 c 0,29 -4,116 -8,193 -5,77 -7,142 -6,145 2,3 35,5 74,5 h 71 z m -2311,25 c 26,0 52,-4 59,-8 9,-6 7,-52 -7,-197 -10,-105 -19,-191 -19,-191 -1,-1 -16,-4 -35,-6 l -34,-4 -16,141 c -31,264 -32,279 -12,272 10,-4 39,-7 64,-7 z m 2127,-402 c 3,-29 8,-65 11,-80 5,-27 4,-28 -38,-27 -24,0 -115,6 -203,12 l -160,12 -3,43 c -2,29 1,42 10,42 11,1 347,45 370,49 3,0 9,-23 13,-51 z m 463,25 c -15,-2 -42,-2 -60,0 -18,2 -6,4 27,4 33,0 48,-2 33,-4 z m -170,-10 c -21,-2 -55,-2 -75,0 -21,2 -4,4 37,4 41,0 58,-2 38,-4 z m -1933,-13 c -3,-5 -1,-10 4,-10 6,0 3,-8 -6,-18 -17,-16 -27,-16 -133,-5 -63,6 -117,13 -120,14 -8,3 172,26 218,28 27,0 41,-3 37,-9 z m 2245,-27 c 0,-21 7,-135 15,-253 8,-118 15,-224 15,-236 0,-20 -8,-21 -212,-33 -117,-6 -240,-15 -274,-18 l -61,-5 -6,103 c -4,57 -10,155 -13,217 l -7,112 h 51 c 57,0 59,2 64,85 l 3,40 155,11 c 85,6 181,12 213,13 l 57,1 z m -1020,-23 v -50 h -49 c -59,0 -81,7 -81,26 0,10 12,14 40,14 36,0 40,3 40,24 0,18 7,26 23,29 12,2 23,5 25,6 1,0 2,-21 2,-49 z m -670,9 c 0,-28 -2,-30 -27,-25 -16,3 -66,10 -113,16 -133,17 -146,24 -60,30 41,4 103,7 138,8 l 62,2 z m 600,16 c 0,-10 -10,-15 -30,-15 -16,0 -30,4 -30,9 0,8 10,12 53,20 4,0 7,-6 7,-14 z m 640,-46 v -50 l -47,3 -48,3 -3,48 -3,47 h 50 51 z m 1635,-271 7,-225 -26,-5 c -23,-5 -26,-2 -26,23 0,35 8,34 -228,18 -90,-6 -165,-9 -167,-7 -3,2 4,76 15,164 27,218 29,202 -27,209 -103,14 -100,12 -106,63 -3,26 -3,49 0,52 2,3 124,9 271,15 l 267,10 6,-46 c 4,-25 10,-147 14,-271 z m -3635,296 c 96,-10 179,-20 184,-25 16,-14 35,-356 25,-448 -5,-47 -12,-87 -14,-90 -5,-4 -194,10 -392,30 -107,11 -112,13 -108,33 2,12 14,98 26,191 12,94 25,172 29,175 4,3 10,33 13,67 3,34 8,66 12,72 8,14 20,14 225,-5 z m 1278,-13 c 1,-1 2,-8 2,-17 0,-14 -9,-16 -57,-11 -152,16 -334,29 -338,25 -2,-2 -12,-96 -22,-208 -15,-169 -21,-205 -34,-208 -13,-2 -17,11 -22,65 -11,111 -20,350 -15,364 5,12 44,12 244,2 132,-6 240,-11 242,-12 z m -1528,5 c 0,-28 -12,-46 -31,-46 -13,0 -19,7 -19,23 0,13 3,27 7,30 12,13 43,7 43,-7 z m 831,-10 c 92,-13 171,-26 176,-29 6,-4 13,-59 17,-124 3,-65 9,-153 12,-195 l 7,-77 -64,-3 -64,-3 -3,-32 c -3,-28 -8,-33 -35,-37 -60,-10 -368,-28 -374,-22 -15,14 -12,199 4,358 l 19,177 -31,4 c -16,2 15,4 70,5 58,1 170,-8 266,-22 z m -1116,-22 c 116,-14 212,-28 214,-30 2,-2 1,-10 -2,-18 -4,-11 -15,-14 -34,-11 -15,2 -109,11 -208,20 -236,20 -245,22 -245,44 0,25 10,32 40,27 14,-3 120,-17 235,-32 z m 782,-51 c -4,-38 -7,-81 -7,-97 0,-18 -4,-26 -9,-20 -5,5 -11,48 -14,97 -5,82 -4,87 16,87 19,0 19,-4 14,-67 z m -1174,41 67,-6 v -77 c 0,-42 -11,-156 -23,-253 -19,-142 -21,-178 -10,-178 7,0 13,-10 13,-21 0,-17 -4,-20 -22,-15 -13,3 -48,6 -79,6 h -57 l -12,99 c -7,55 -16,104 -19,110 -6,8 -187,-11 -318,-34 l -32,-6 5,183 c 3,101 8,189 10,197 3,11 40,12 207,7 111,-4 232,-9 270,-12 z m 2022,1 c 88,-8 167,-15 176,-15 13,0 19,-32 37,-177 29,-230 30,-213 -18,-213 -35,0 -40,3 -40,23 v 22 l -167,-12 c -93,-6 -179,-12 -193,-12 l -26,-1 18,193 c 9,105 17,195 18,200 0,9 9,9 195,-8 z m 347,-38 c 0,-4 -5,-84 -12,-177 -13,-174 -20,-195 -57,-188 -15,3 -21,27 -40,168 -31,238 -35,216 42,210 36,-3 66,-8 67,-13 z m 253,12 c 88,-6 162,-13 164,-15 2,-2 13,-83 25,-181 l 22,-178 -29,-3 c -17,-2 -33,2 -37,8 -6,9 -58,10 -207,5 l -199,-7 17,188 c 10,104 18,190 18,192 2,4 69,2 226,-9 z m -2222,-28 c 103,-10 190,-21 193,-24 5,-5 -19,-281 -32,-369 -5,-34 -4,-38 16,-38 20,0 22,-4 17,-36 -3,-20 -8,-39 -11,-42 -3,-2 -115,9 -248,27 -134,17 -247,31 -251,31 -16,0 0,403 19,463 4,14 14,16 57,11 29,-3 136,-13 240,-23 z m 257,14 c 0,-8 -7,-15 -15,-15 -8,0 -15,7 -15,15 0,8 7,15 15,15 8,0 15,-7 15,-15 z m 3163,-14 c 88,-11 160,-21 162,-23 2,-2 7,-88 11,-191 l 7,-187 h -37 -36 l -1,-52 c -1,-50 -2,-49 -14,30 -7,46 -16,86 -19,89 -3,3 -82,-6 -175,-19 -95,-14 -171,-20 -171,-15 0,15 41,350 46,374 3,18 9,21 37,17 17,-2 103,-13 190,-23 z m -3174,-48 c -2,-78 -45,-357 -56,-360 -8,-3 -11,6 -7,29 6,44 34,327 34,344 0,8 7,14 15,14 10,0 15,-9 14,-27 z m 3436,17 c 58,-1 59,-1 36,-185 -11,-92 -22,-169 -24,-172 -3,-2 -21,-7 -41,-10 l -36,-6 v 70 c 0,38 -3,125 -7,193 l -6,123 24,-6 c 13,-4 38,-7 54,-7 z M 1039,1274 c 7,-53 11,-97 9,-100 -3,-2 -84,-1 -181,3 l -177,6 v 69 c 0,37 3,68 8,69 10,1 316,46 323,48 3,0 11,-42 18,-95 z m 2305,-30 c 4,-47 6,-87 4,-89 -2,-2 -90,4 -196,13 l -193,16 7,61 c 4,33 7,61 8,62 3,3 235,20 302,22 l 61,1 z m -2676,-4 -3,-80 h 100 c 55,0 143,-3 196,-6 l 95,-7 23,-160 c 12,-88 21,-161 19,-162 -8,-7 -531,-75 -536,-70 -7,6 -82,528 -77,533 3,3 121,23 179,31 4,0 6,-35 4,-79 z m 2278,0 c -8,-83 -32,-73 218,-94 98,-8 181,-18 184,-20 3,-4 30,-328 27,-337 -1,-3 -321,-25 -324,-23 -2,2 4,61 13,132 9,71 16,136 16,144 0,12 -22,18 -97,27 -54,7 -117,14 -140,18 l -43,5 v 69 69 h 34 c 18,0 48,3 66,6 28,6 31,10 26,34 -5,28 0,40 17,40 6,0 7,-27 3,-70 z m 983,66 c -3,-3 -79,-14 -169,-25 -91,-12 -177,-23 -192,-26 -24,-4 -28,-1 -28,20 0,24 1,24 108,28 222,6 285,7 281,3 z m 1149,-99 c 8,-54 12,-101 9,-103 -3,-3 -88,5 -190,17 l -186,22 6,51 c 3,28 10,56 15,61 9,10 277,54 313,51 17,-1 22,-13 33,-99 z m -2174,76 c 9,-23 -11,-33 -66,-33 -45,0 -48,2 -48,25 0,24 3,25 54,25 41,0 55,-4 60,-17 z m 616,-7 c 0,-17 -7,-25 -25,-28 -21,-4 -25,-1 -25,18 0,16 7,24 23,27 12,2 23,5 25,6 1,0 2,-10 2,-23 z m -68,-18 c 3,-31 5,-33 37,-30 28,3 33,1 27,-13 -3,-9 -6,-30 -6,-47 v -30 l -55,4 c -30,3 -58,7 -61,11 -3,3 -9,35 -11,71 l -6,66 h 36 c 33,0 36,-2 39,-32 z m -2215,-25 c -3,-10 -5,-2 -5,17 0,19 2,27 5,18 2,-10 2,-26 0,-35 z m 2697,-50 c 3,-54 9,-170 12,-259 l 7,-160 -274,-12 c -150,-6 -274,-10 -275,-9 -1,1 -5,88 -9,193 l -7,191 71,-5 71,-5 v 44 c 0,24 4,50 9,58 7,10 61,22 178,37 92,12 178,22 189,23 20,1 22,-5 28,-96 z m 1746,68 c 0,-17 -14,-19 -191,-25 -105,-4 -192,-6 -194,-4 -22,21 114,40 333,47 44,1 52,-2 52,-18 z m -980,-30 c 0,-65 -2,-66 -89,-63 l -79,3 -6,31 c -3,17 -4,34 -1,37 5,4 125,27 163,30 8,1 12,-13 12,-38 z m 571,14 c 0,-13 -38,-19 -59,-9 -13,6 -11,9 13,14 36,9 47,8 46,-5 z m -2934,-32 c -3,-10 -5,-4 -5,12 0,17 2,24 5,18 2,-7 2,-21 0,-30 z m 2849,13 c 5,-21 10,-23 46,-19 l 40,6 -7,-59 c -4,-32 -9,-60 -10,-62 -2,-2 -28,-1 -58,3 -51,7 -55,9 -61,37 -3,17 -6,50 -6,74 0,40 2,44 25,44 18,0 26,-7 31,-24 z m -3036,-32 c 113,-9 206,-17 208,-19 2,-1 -5,-123 -14,-269 l -18,-266 -65,1 c -36,1 -140,6 -231,12 l -165,12 3,35 c 2,19 12,116 22,215 10,98 16,183 14,187 -3,4 -25,8 -50,8 h -44 v 56 55 l 68,-6 c 37,-3 159,-12 272,-21 z m 3530,14 c 0,-7 7,-107 15,-223 8,-116 15,-219 15,-231 0,-20 -8,-21 -197,-33 -109,-6 -232,-14 -274,-18 l -76,-6 -6,114 c -4,63 -10,149 -13,192 l -7,77 70,-6 70,-7 7,71 7,71 87,4 c 228,8 302,7 302,-5 z m -1287,-44 c 108,-6 118,-9 122,-28 2,-12 16,-104 30,-206 38,-270 32,-250 66,-250 27,0 29,-2 29,-41 v -42 l -87,6 c -49,4 -173,12 -276,18 l -189,12 6,61 c 3,34 10,142 16,241 6,99 13,195 16,214 l 5,34 72,-6 c 40,-4 125,-10 190,-13 z m 276,-76 c 0,-35 -6,-135 -12,-223 -12,-154 -13,-160 -34,-163 -13,-2 -23,-2 -24,0 0,2 -15,103 -33,226 l -32,222 h 68 68 z m -3097,32 c 106,-11 198,-22 203,-24 7,-2 7,-60 -2,-177 -6,-96 -12,-195 -12,-221 l -1,-48 h 41 42 l -6,-51 c -4,-29 -8,-53 -9,-55 -2,-1 -123,9 -268,24 l -265,27 -3,25 c -2,14 9,133 23,265 14,132 25,243 25,248 0,10 16,9 232,-13 z m 3344,-12 181,-21 17,-126 c 9,-69 19,-138 21,-153 4,-22 0,-29 -18,-33 -56,-12 -441,-64 -445,-60 -3,2 1,97 8,210 12,198 14,205 34,205 12,0 103,-10 202,-22 z m -2262,-9 c 148,-17 132,-2 140,-131 3,-62 9,-139 13,-172 l 6,-59 103,7 c 121,8 110,24 92,-131 -11,-96 -13,-103 -34,-103 -28,0 -516,59 -520,63 -2,1 11,123 29,270 l 31,267 h 25 c 14,0 65,-5 115,-11 z m -771,-51 c -3,-24 -12,-117 -21,-208 l -17,-165 -33,-3 c -25,-3 -32,0 -32,15 0,40 22,379 26,391 2,7 20,12 42,12 h 40 z m 1051,17 c 65,-8 120,-16 122,-18 2,-2 -4,-64 -13,-139 l -16,-136 -94,-7 c -52,-4 -97,-5 -99,-2 -10,9 -30,317 -21,317 1,0 56,-7 121,-15 z"
             id="path44"
             inkscape:label="path44" />
          <path
             style="fill:none;stroke:#000000;stroke-width:1"
             d="m 1198.469,5205.9246 -4.3936,-4.3936 M 1204.8779,4627.0062 1192.8718,4615 c -16.0082,-16.0082 2.4151,-30.1031 18.4233,-14.0949 l 26.101,26.1011 m -552.40214,-617.4386 9.9079,9.9079 m 458.57814,3.3235 69.7152,69.7153 c 4.1768,4.1767 3.8058,-28.7124 -0.3709,-32.8891 v 0 c -4.1767,-4.1768 -24.109,-56.6273 -19.9323,-52.4505 l 36.4861,36.486 m -565.48512,-565.4851 6.49263,6.4927 m 1099.83939,1067.3212 -5.5116,-5.5116 m -556.2418,-978.9783 2.9982,2.9982 c 3.9975,3.9976 0.8059,-31.7122 -3.1916,-35.7098 l -37.2702,-37.2701 c -3.9952,-3.9953 33.0063,0.4881 37.0015,4.4833 v 0 c 3.9953,3.9952 21.004,-11.5143 17.0087,-15.5095 l -0.5314,-0.5314 c -4.7037,-4.7038 -7.6834,-40.2017 -2.9797,-35.4979 l 39.4159,39.4159 m 1076.0832,1173.6377 -17.0936,-17.0935 m -576.9188,-576.9188 16.144,16.1439 m 1121.9954,1089.4772 12.3421,12.3421 c 4.7078,4.7079 23.2344,-9.2838 18.5265,-13.9916 l -0.7826,-0.7827 c -3.6644,-3.6644 -2.2922,-34.8103 1.3722,-31.1459 v 0 c 3.6644,3.6644 4.9778,-27.5405 1.3134,-31.2049 l -3.4067,-3.4066 m -542.5301,-510.012 -8.3803,-8.3802 m -634.3346,-1057.071 -15.0416,-15.0416 c -16.2591,-16.2591 -10.8424,-43.3606 5.4167,-27.1015 l 42.7045,42.7045 c 3.6806,3.6805 26.9437,-5.5746 23.2631,-9.2551 l -2.7604,-2.7604 m 1682.976,1682.9759 5.1948,5.1948 M 655.99127,2387.1737 l 10.69093,10.691 m 2227.6846,2195.1664 15.6994,15.6993 c 10.0642,10.0643 33.3099,0.7918 23.2457,-9.2724 v 0 c -10.0643,-10.0643 21.3326,-11.1856 31.3969,-1.1213 l 8.6695,8.6695 m -1251.643,-1251.643 12.5788,12.5788 m 525.8862,168.1861 -8.0793,-8.0793 m -528.0068,-560.5249 26.2332,26.2332 m 1148.3931,1050.8385 -11.4106,-11.4106 c -15.2142,-15.2142 11.4869,-21.0313 26.7011,-5.8171 l 6.0073,6.0073 c 11.659,11.659 36.31,3.7918 24.6509,-7.8673 l -8.7443,-8.7443 m -1735.5134,-1702.9952 -6.7063,-6.7063 m 2334.5892,2302.071 -20.0887,-20.0887 c -3.6874,-3.6874 3.8463,-28.6719 7.5337,-24.9845 l 2.7655,2.7655 M 713.45147,1729.2338 l -6.86324,-6.8632 m 3904.99887,3482.2624 -8.3185,-8.3185 c -11.0914,-11.0914 11.8025,-20.7157 22.8939,-9.6243 l 5.9168,5.9169 c 5.8655,5.8654 -3.6068,-36.125 -9.4722,-41.9905 l -4.3992,-4.3991 m -1143.6692,-1078.6329 10.8464,10.8464 c 14.4618,14.4618 12.8359,-19.6823 -1.6259,-34.1441 l -11.1811,-11.1811 c -16.2591,-16.2591 40.7007,-24.3357 56.9598,-8.0766 l 12.5395,12.5395 m -1719.9477,-1687.4295 -4.7719,-4.7719 m 604.8197,572.3016 -13.5085,-13.5086 m -660.16,-660.16 -6.5266,-6.5266 c -8.7023,-8.7022 0.9206,-31.5976 9.6228,-22.8954 l 27.5419,27.5419 m 1206.841,1206.841 15.1531,15.1532 c 4.1593,4.1592 45.1155,12.5972 40.9562,8.438 l -3.1195,-3.1195 m -1765.9841,-1765.9841 4.8712,4.8711 c 6.4949,6.4949 19.5302,-12.9879 13.0354,-19.4828 l -17.9066,-17.9065 m 1060.7907,1028.2724 5.4912,5.4913 m 2283.6924,2218.656 -7.5591,-7.5591 m -1764.0264,-1991.6537 14.5226,14.5226 m -1628.343,-1628.343 -2.1696,-2.1696 c -2.8545,-2.8545 -2.842,-35.3602 0.013,-32.5057 l 2.1409,2.1409 m 2761.0983,2761.0983 -2.9436,-2.9436 c -3.9248,-3.9248 16.3119,-16.2062 20.2367,-12.2815 l 49.2481,49.2482 c 14.6479,14.6478 8.2418,-24.2765 -6.4061,-38.9244 l -5.0252,-5.0251 c -7.9476,-7.9477 24.5706,-7.9477 32.5182,0 l 5.9608,5.9607 m 513.0421,578.0785 17.0125,17.0125 m -1682.9544,-1715.4726 15.1272,15.1272 c 16.2591,16.2591 38.4305,5.9123 22.1714,-10.3468 l -12.6536,-12.6536 m -104.8879,-72.3696 15.1722,15.1721 m -1062.2923,-1062.2923 -4.6481,-4.648 c -6.1974,-6.1975 35.3863,2.8681 41.5838,9.0655 l 9.5826,9.5826 c 5.5886,5.5886 22.4895,-10.0287 16.9008,-15.6173 l -4.1914,-4.1915 m 1659.839,1692.3572 -40.9755,-40.9754 c -3.5625,-3.5626 9.0912,-23.4271 12.6537,-19.8645 l 2.6719,2.6719 M 1246.5789,1189.261 l 4.2438,4.2438 m 2340.4247,2275.3884 -4.6815,-4.6815 m -1770.3168,-1770.3168 -30.7276,-30.7277 c -4.4094,-4.4093 7.3355,-25.1826 11.7449,-20.7732 v 0 c 4.4094,4.4093 50.912,18.3938 46.5026,13.9844 l -3.6221,-3.6222 m 1057.0805,764.4169 -15.6663,-15.6663 m -545.827,-545.827 -14.2671,-14.2671 c -5.1343,-5.1343 8.6878,-23.8304 13.8221,-18.6961 v 0 c 5.1344,5.1344 4.5172,-28.001 -0.6172,-33.1354 l -18.1744,-18.1744 c -16.2591,-16.2591 -1.5315,-34.0496 14.7276,-17.7906 l 32.6237,32.6237 m 2188.9439,2253.9803 9.6266,9.6266 c 10.1327,10.1327 32.2107,-0.3074 22.078,-10.4402 l -7.5996,-7.5996 m -509.8915,-542.4097 -26.4035,-26.4035 m -2238.5645,-2238.5644 -4.7077,-4.7078 m 3414.6227,3382.1045 5.18,5.1801 m -2255.5263,-2255.5264 -46.0916,-46.0915 m 153.0482,55.4936 7.6716,7.6715 m -485.0314,-582.5859 -4.1432,-4.1432 m 297.8026,37.6571 5.9446,5.9446 c 7.9261,7.9262 13.7167,-51.3197 5.7905,-59.2458 l -25.9669,-25.967 m -546.8571,-514.3388 5.3403,5.3402 c 7.1204,7.1204 36.9508,-28.0855 29.8304,-35.2059 l -6.5071,-6.5072 m 3390.1338,3422.652 11.9079,11.9079 m -563.47,-595.9882 22.0766,22.0766 m -528.3504,-593.3867 30.6266,30.6266 m -31.0526,-161.1253 -7.099,-7.0991 m -1909.6946,-2072.2856 4.826,4.8261 m 136.4648,71.4285 -3.2149,-3.215 c -4.2866,-4.2866 13.4121,-19.1061 17.6987,-14.8195 l 27.895,27.895 m 440.7728,440.7728 18.4994,18.4994 m 1237.7102,1205.192 -26.0628,-26.0627 c -7.6573,-7.6574 13.5933,-18.9249 21.2507,-11.2676 v 0 c 7.6573,7.6574 27.2085,-5.3096 19.5511,-12.967 l -21.746,-21.746 m -1735.3898,-1670.3534 -4.9258,-4.9258 m 2857.5801,2792.5437 -10.9289,-10.9289 m -2193.7731,-2193.7732 -10.7143,-10.7142 m 1091.6811,1026.6447 6.8546,6.8546 m -520.1645,-520.1645 -4.5725,-4.5725 m -546.2488,-643.8033 8.6529,8.6528 m -127.4992,-387.6446 -4.1852,-4.1853 m -80.8493,-145.8857 -11.6877,-11.6877 c -3.3443,-3.3443 14.6272,-17.8909 17.9715,-14.5466 l 2.5082,2.5082 m 2335.1799,2335.1798 -3.0204,-3.0204 c -4.0272,-4.0272 25.1619,-39.8745 29.1891,-35.8473 l 13.8907,13.8907 M 4625.024,2388.9876 l 12.0641,12.064 m -74.0943,-74.0942 5.1179,5.1179 c 6.8239,6.8239 6.4762,-26.042 -0.3477,-32.8659 l -3.3112,-3.3112 c -11.2388,-11.2388 -6.1766,-38.6948 5.0623,-27.4559 l 9.7062,9.7062 c 7.498,7.498 57.4232,24.905 49.9252,17.407 l -5.6235,-5.6235 m 538.3737,603.4101 -19.388,-19.388 c -7.3363,-7.3364 1.9098,-30.6085 9.2461,-23.2721 l 5.5023,5.5023 m -1161.8395,-1129.3214 -25.9518,-25.9517 c -3.5627,-3.5627 16.5027,-16.0155 20.0654,-12.4528 v 0 c 3.5626,3.5626 17.4675,-15.0507 13.9049,-18.6133 l -8.5253,-8.5254 m -480.5303,-415.4938 4.2858,4.2857 c 3.5082,3.5083 19.7788,-12.7394 16.2705,-16.2476 l -2.6312,-2.6313 m -509.964,-477.44574 4.4943,4.49431 c 5.9924,5.99242 24.6461,-7.87209 18.6537,-13.86451 l -9.4769,-9.47691 m 2168.0688,2168.06885 12.0322,12.0322 c 9.4689,9.4689 38.8579,6.3397 29.389,-3.1292 l -7.1017,-7.1017 m -1104.0978,-1071.5796 -10.1183,-10.1183 c -13.491,-13.491 5.4362,-27.082 18.9272,-13.591 l 24.6346,24.6346 m 159.9797,-2.6113 5.8191,5.8191 m 138.7852,8.7125 -2.8725,-2.8725 c -3.83,-3.8299 63.4136,-1.6228 67.2436,2.2072 l 34.7785,34.7785 c 6.4988,6.4988 6.8207,-25.6974 0.322,-32.1962 l -4.8741,-4.8741 m -636.0682,-538.5135 -4.4218,-4.4219 c -5.8958,-5.8958 15.1258,-17.3924 21.0216,-11.4966 l 5.6821,5.6821 m 1148.8558,1116.3377 -6.6337,-6.6337 c -8.8449,-8.8449 9.2156,-23.3027 18.0605,-14.4577 l 23.4181,23.4181 c 16.2591,16.2591 54.9047,22.3864 38.6456,6.1273 l -26.8285,-26.8284 m 590.058,557.5398 -10.4571,-10.4571 m -1195.3688,-1683.1417 -6.1921,-6.192 c -8.256,-8.2561 33.6034,1.0851 41.8594,9.3412 l 21.8857,21.8857 m 565.9472,565.9472 -7.5599,-7.56 m -404.6131,-567.204 -26.8872,-26.8872 m -63.6281,-551.40086 -4.073,-4.07304 c -5.4307,-5.43072 7.88,-24.63819 13.3107,-19.20747 l 13.3647,13.36469 m 437.9738,437.97378 -19.3521,-19.352 c -3.0116,-3.0117 20.9699,-11.5483 23.9816,-8.5367 v 0 c 3.0116,3.0116 16.4144,-16.1037 13.4028,-19.1153 l -10.4632,-10.4632 m 162.4052,162.4052 21.5374,21.5373 m 365.667,-24.5512 12.2623,12.2623"
             id="path650" />
        </g>
      </g>
    </g>
  </g>
  <g
     inkscape:groupmode="layer"
     id="layer2"
     inkscape:label="2_red">
    <g
       id="g626"
       style="display:inline"
       transform="matrix(0.06163928,0,0,-0.06163928,52.223642,369.83187)">
      <g
         id="g659">
        <path
           style="fill:none;stroke:#ff0000;stroke-width:4.36903"
           d="m 2464.2719,3417.9834 -19.365,-19.6987 c -16.1215,-16.3994 -10.1131,-43.0861 6.0084,-26.6867 l 31.9214,32.4713 c 16.1216,16.3994 46.7775,14.785 30.656,-1.6143 l -65.0192,-66.1395 c -16.1215,-16.3993 -18.4949,-51.6123 -2.3734,-35.213 l 98.0486,99.7381 c 16.1215,16.3993 46.7774,14.7847 30.6559,-1.6146 l -130.7422,-132.9949 c -16.1215,-16.3993 -18.1336,-51.2448 -2.012,-34.8455 l 163.4102,166.2261 c 16.1215,16.3993 46.7774,14.7847 30.6559,-1.6146 l -195.7823,-199.1559 c -16.1215,-16.3993 -17.844,-50.95 -1.7225,-34.5507 l 228.1608,232.0923 c 16.1215,16.3993 46.7774,14.7849 30.6559,-1.6145 l -260.2916,-264.7768 c -16.1216,-16.3993 -17.6202,-50.7225 -1.4988,-34.3232 l 292.4464,297.4855 c 16.1216,16.3993 46.7775,14.785 30.6559,-1.6144 l -324.4141,-330.0042 c -16.1216,-16.3994 -17.459,-50.5586 -1.3375,-34.1593 l 356.4076,362.549 c 16.1216,16.3993 46.7776,14.785 30.656,-1.6143 l -388.2839,-394.9747 c -16.1216,-16.3992 -17.3417,-50.4392 -1.2202,-34.0399 l 420.1601,427.4001 c 16.1215,16.3993 46.7775,14.7848 30.656,-1.6145 L 2429.328,2923.2562 c -16.1215,-16.3994 -14.5013,-47.5499 1.6202,-31.1506 l 481.0721,489.3616 c 16.1214,16.3993 46.7774,14.7848 30.6559,-1.6144 l -481.2301,-489.5224 c -16.1215,-16.3993 14.3765,-18.1745 30.498,-1.7752 l 476.4208,484.6302 c 16.1215,16.3994 13.0116,-19.5628 -3.11,-35.9621 L 2522.442,2886.78 c -16.1216,-16.3993 14.3764,-18.1744 30.498,-1.7751 l 417.5651,424.7603 c 16.1216,16.3993 12.4643,-20.1196 -3.6572,-36.5189 l -383.41,-390.0166 c -16.1215,-16.3993 14.3764,-18.1745 30.498,-1.7752 l 349.4637,355.4854 c 16.1215,16.3994 9.9847,-22.6418 -6.1368,-39.0411 l -312.829,-318.2195 c -16.1215,-16.3993 14.3763,-18.1744 30.4979,-1.7751 l 282.065,286.9252 c 16.1215,16.3993 13.9375,-18.6209 -2.184,-35.0202 l -249.383,-253.6802 c -16.1215,-16.3993 14.3764,-18.1745 30.4979,-1.7752 l 217.7699,221.5224 c 16.1216,16.3993 15.1624,-17.3751 -0.9592,-33.7744 l -186.3127,-189.5233 c -16.1215,-16.3993 14.3764,-18.1744 30.4978,-1.7751 l 154.82,157.4876 c 16.1214,16.3993 14.9404,-17.6008 -1.181,-34 l -123.141,-125.2628 c -16.1216,-16.3993 14.3765,-18.1745 30.498,-1.7752 l 91.4841,93.0606 c 16.1216,16.3993 14.5135,-18.0352 -1.608,-34.4345 l -59.3781,-60.4013 c -16.1216,-16.3994 14.3764,-18.1745 30.4979,-1.7751 l 29.9202,30.4357 c 12.5837,12.8004 10.508,-22.1096 -2.0757,-34.9101 l -9.4377,-9.6003"
           id="path657" />
      </g>
    </g>
  </g>
  <plotdata
     application="axidraw"
     model="1"
     plob_version="n/a"
     layer="-2"
     pause_dist="-25400"
     pause_ref="-25400"
     last_x="-9.517386878599154e-14"
     last_y="-7.446473992978042e-14"
     rand_seed="1"
     row="0" />
</svg>
